<svg width="120" height="78" viewBox="0 0 120 78" fill="none" xmlns="http://www.w3.org/2000/svg">
<g clip-path="url(#clip0_11616_36091)">
<path fill-rule="evenodd" clip-rule="evenodd" d="M52.9553 53.256H33.6172V0.126953H81.4681C69.2882 4.3066 56.5027 14.138 56.5027 20.978C56.5027 25.2223 59.6858 28.8135 67.1948 31.9151C56.3394 38.1182 50.7077 44.8926 50.7077 49.1368C50.7077 50.7136 51.5594 52.1635 52.9553 53.256ZM86.7463 3.09767C75.7043 5.72204 62.2977 14.8446 62.2977 20.7332C62.2977 24.9478 66.6316 26.6722 71.1165 28.4568C75.925 30.3701 80.9069 32.3524 80.9069 37.5468C80.9069 43.5758 75.072 50.0666 67.9779 53.256H86.7463V3.09767ZM71.1942 33.0577C60.9918 39.4241 53.9725 45.5455 53.9725 48.239C53.9725 49.7081 55.9313 50.7692 58.6248 50.7692C66.297 50.7692 75.8465 44.4845 75.8465 39.4241C75.8465 37.1387 74.2141 34.935 71.1942 33.0577Z" fill="#1E1B28"/>
<path d="M0 74.5311H0.465239C0.522676 75.3467 0.827091 76.0245 1.37849 76.5644C1.94137 77.0928 2.63635 77.357 3.46344 77.357C4.25607 77.357 4.86491 77.1215 5.28994 76.6506C5.72646 76.1681 5.94472 75.5937 5.94472 74.9274C5.94472 74.3875 5.7839 73.9395 5.46225 73.5834C5.1406 73.2273 4.63516 72.8999 3.94592 72.6012L2.91205 72.1532C1.99306 71.7512 1.29807 71.3089 0.827091 70.8264C0.356109 70.344 0.120617 69.7007 0.120617 68.8966C0.120617 67.9087 0.448008 67.1964 1.10279 66.7599C1.76906 66.3119 2.58466 66.0879 3.5496 66.0879C3.96315 66.0879 4.29628 66.1224 4.549 66.1913C4.80172 66.2602 5.04296 66.3521 5.27271 66.467C5.45651 66.5474 5.58287 66.5876 5.65179 66.5876C5.75518 66.5876 5.82984 66.5417 5.87579 66.4498C5.92174 66.3579 5.95621 66.2372 5.97918 66.0879H6.39273L6.56504 69.0861H6.0998C6.03087 68.3854 5.77815 67.7995 5.34163 67.3285C4.90511 66.8461 4.28479 66.6048 3.48068 66.6048C2.84887 66.6048 2.34917 66.7714 1.98157 67.1045C1.61398 67.4262 1.43018 67.9489 1.43018 68.6726C1.43018 69.224 1.56228 69.6605 1.82649 69.9821C2.0907 70.3038 2.55594 70.6024 3.22221 70.8781L4.22161 71.3089C4.86491 71.5961 5.38758 71.8661 5.78964 72.1188C6.20319 72.36 6.54781 72.6931 6.8235 73.1182C7.11069 73.5432 7.25428 74.0774 7.25428 74.7207C7.25428 75.766 6.89243 76.5529 6.16872 77.0813C5.45651 77.6097 4.56623 77.874 3.49791 77.874C3.07287 77.874 2.71677 77.8395 2.42958 77.7706C2.15388 77.7131 1.85521 77.627 1.53357 77.5121C1.3153 77.4202 1.14874 77.3743 1.03386 77.3743C0.815604 77.3743 0.694987 77.5408 0.672012 77.874H0.206773L0 74.5311Z" fill="#1E1B28"/>
<path d="M19.3425 77.2011C19.8939 77.2011 20.273 77.1782 20.4798 77.1322C20.698 77.0748 20.8359 76.9829 20.8933 76.8565C20.9508 76.7187 20.9795 76.4775 20.9795 76.1329V66.8108H19.9801C19.3138 66.8108 18.8198 66.8682 18.4982 66.9831C18.188 67.098 17.964 67.3048 17.8262 67.6034C17.6883 67.9021 17.5849 68.3731 17.516 69.0164H17.0508V66.2939H26.1833V69.0164H25.718C25.6491 68.3731 25.54 67.9021 25.3906 67.6034C25.2528 67.3048 25.023 67.098 24.7014 66.9831C24.3912 66.8682 23.9088 66.8108 23.254 66.8108H22.2546V76.1329C22.2546 76.4775 22.2775 76.7187 22.3235 76.8565C22.3809 76.9829 22.5188 77.0748 22.737 77.1322C22.9553 77.1782 23.3401 77.2011 23.8915 77.2011V77.6665H19.3425V77.2011Z" fill="#1E1B28"/>
<path d="M36.0625 77.2011C36.4761 77.2011 36.769 77.1782 36.9413 77.1322C37.1251 77.0748 37.24 76.9829 37.2859 76.8565C37.3434 76.7302 37.3721 76.5235 37.3721 76.2363V67.7413C37.3721 67.4426 37.3434 67.2301 37.2859 67.1037C37.2285 66.9774 37.1079 66.8912 36.9241 66.8453C36.7518 66.7878 36.4646 66.7591 36.0625 66.7591V66.2939H40.2842C41.3755 66.2939 42.237 66.5295 42.8688 67.0004C43.5121 67.4599 43.8338 68.1664 43.8338 69.1199C43.8338 69.878 43.627 70.504 43.2134 70.998C42.7999 71.4804 42.237 71.8193 41.5248 72.0146V72.0318C42.0417 72.2041 42.4323 72.4627 42.6965 72.8073C42.9722 73.1405 43.1732 73.6975 43.2996 74.4786L43.4374 75.2886C43.5523 75.9893 43.7016 76.4832 43.8854 76.7704C44.0807 77.0576 44.3851 77.2011 44.7987 77.2011V77.6665H42.9033C42.7424 77.4942 42.6103 77.2874 42.507 77.0462C42.4151 76.8049 42.3289 76.4832 42.2485 76.0811L41.8866 74.1169C41.7603 73.4621 41.5363 72.9968 41.2146 72.7211C40.9045 72.4454 40.422 72.3075 39.7672 72.3075H38.6472V76.2363C38.6472 76.535 38.6759 76.7474 38.7334 76.8738C38.7908 77.0001 38.9172 77.0863 39.1124 77.1322C39.3077 77.1782 39.6351 77.2011 40.0946 77.2011V77.6665H36.0625V77.2011ZM39.75 71.7217C40.669 71.7217 41.3467 71.5321 41.7833 71.153C42.2198 70.7625 42.438 70.1479 42.438 69.3093C42.438 68.4592 42.214 67.8389 41.766 67.4484C41.3295 67.0578 40.646 66.8625 39.7155 66.8625C39.279 66.8625 38.9918 66.9086 38.854 67.0004C38.7161 67.0923 38.6472 67.2473 38.6472 67.4656V71.7217H39.75Z" fill="#1E1B28"/>
<path d="M54.6387 77.2011C55.0752 77.2011 55.3796 77.1782 55.5519 77.1322C55.7242 77.0863 55.8334 77.0001 55.8793 76.8738C55.9253 76.7359 55.9482 76.489 55.9482 76.1329V67.8274C55.9482 67.4828 55.9253 67.2473 55.8793 67.121C55.8334 66.9831 55.7242 66.8912 55.5519 66.8453C55.3796 66.7878 55.0752 66.7591 54.6387 66.7591V66.2939H62.4099V68.9819H61.9447C61.8643 68.3616 61.7494 67.908 61.6 67.6208C61.4622 67.3221 61.2324 67.1153 60.9108 67.0004C60.5891 66.8856 60.0952 66.828 59.4289 66.828H57.8264C57.5622 66.828 57.3957 66.8625 57.3267 66.9314C57.2578 67.0003 57.2233 67.1784 57.2233 67.4656V71.4632H59.3255C59.785 71.4632 60.1182 71.4231 60.3249 71.3427C60.5317 71.2508 60.6696 71.1128 60.7385 70.929C60.8189 70.7452 60.8878 70.4523 60.9453 70.0502H61.3588V73.4792H60.9453C60.8878 73.0657 60.8189 72.7728 60.7385 72.6004C60.6696 72.4167 60.5317 72.2789 60.3249 72.187C60.1182 72.0951 59.785 72.0491 59.3255 72.0491H57.2233V75.702C57.2233 76.1271 57.275 76.443 57.3784 76.6498C57.4933 76.845 57.6943 76.9772 57.9815 77.0462C58.2687 77.1151 58.7225 77.1496 59.3428 77.1496C60.1009 77.1496 60.681 77.0978 61.0831 76.9944C61.4852 76.8795 61.7953 76.6612 62.0136 76.3396C62.2433 76.0179 62.4214 75.5125 62.5477 74.8233H63.013L62.8234 77.6665H54.6387V77.2011Z" fill="#1E1B28"/>
<path d="M74.9733 77.2011C75.5247 77.2011 75.9038 77.1782 76.1105 77.1322C76.3288 77.0748 76.4666 76.9829 76.5241 76.8565C76.5815 76.7187 76.6102 76.4775 76.6102 76.1329V66.8108H75.6108C74.9446 66.8108 74.4506 66.8682 74.129 66.9831C73.8188 67.098 73.5948 67.3048 73.457 67.6034C73.3191 67.9021 73.2157 68.3731 73.1468 69.0164H72.6816V66.2939H81.814V69.0164H81.3488C81.2799 68.3731 81.1707 67.9021 81.0214 67.6034C80.8836 67.3048 80.6538 67.098 80.3322 66.9831C80.022 66.8682 79.5395 66.8108 78.8847 66.8108H77.8854V76.1329C77.8854 76.4775 77.9083 76.7187 77.9543 76.8565C78.0117 76.9829 78.1496 77.0748 78.3678 77.1322C78.5861 77.1782 78.9709 77.2011 79.5223 77.2011V77.6665H74.9733V77.2011Z" fill="#1E1B28"/>
<path d="M93.4167 77.2011C93.9681 77.2011 94.3472 77.1782 94.554 77.1322C94.7722 77.0748 94.9101 76.9829 94.9675 76.8565C95.025 76.7187 95.0537 76.4775 95.0537 76.1329V66.8108H94.0543C93.388 66.8108 92.894 66.8682 92.5724 66.9831C92.2622 67.098 92.0382 67.3048 91.9004 67.6034C91.7625 67.9021 91.6592 68.3731 91.5902 69.0164H91.125V66.2939H100.258V69.0164H99.7922C99.7233 68.3731 99.6142 67.9021 99.4648 67.6034C99.327 67.3048 99.0972 67.098 98.7756 66.9831C98.4654 66.8682 97.983 66.8108 97.3282 66.8108H96.3288V76.1329C96.3288 76.4775 96.3517 76.7187 96.3977 76.8565C96.4551 76.9829 96.593 77.0748 96.8112 77.1322C97.0295 77.1782 97.4143 77.2011 97.9657 77.2011V77.6665H93.4167V77.2011Z" fill="#1E1B28"/>
<path d="M114.933 77.874C113.796 77.874 112.848 77.6212 112.09 77.1158C111.343 76.6103 110.786 75.9211 110.419 75.0481C110.051 74.1635 109.867 73.1584 109.867 72.0326C109.867 70.9298 110.045 69.9304 110.401 69.0344C110.757 68.1384 111.315 67.4262 112.073 66.8978C112.831 66.3579 113.784 66.0879 114.933 66.0879C116.082 66.0879 117.035 66.3579 117.793 66.8978C118.552 67.4262 119.109 68.1384 119.465 69.0344C119.821 69.9304 119.999 70.9298 119.999 72.0326C119.999 73.1584 119.815 74.1635 119.448 75.0481C119.08 75.9211 118.517 76.6103 117.759 77.1158C117.012 77.6212 116.07 77.874 114.933 77.874ZM114.933 77.357C116.323 77.357 117.259 76.8286 117.742 75.7718C118.236 74.7034 118.483 73.4571 118.483 72.0326C118.483 70.4474 118.241 69.1493 117.759 68.1384C117.288 67.116 116.346 66.6048 114.933 66.6048C113.52 66.6048 112.572 67.116 112.09 68.1384C111.619 69.1493 111.383 70.4474 111.383 72.0326C111.383 73.4571 111.625 74.7034 112.107 75.7718C112.601 76.8286 113.543 77.357 114.933 77.357Z" fill="#1E1B28"/>
</g>
<defs>
<clipPath id="clip0_11616_36091">
<rect width="120" height="78" fill="white"/>
</clipPath>
</defs>
</svg>
