<svg width="198" height="14" viewBox="0 0 198 14" fill="none" xmlns="http://www.w3.org/2000/svg">
<g clip-path="url(#clip0_11616_36102)">
<path d="M5.66094 5.73988V3.09988C5.66094 2.88655 5.62094 2.74655 5.54094 2.67988C5.46094 2.59988 5.30761 2.55988 5.08094 2.55988H3.26094V6.27988H5.08094C5.30761 6.27988 5.46094 6.24655 5.54094 6.17988C5.62094 6.09988 5.66094 5.95321 5.66094 5.73988ZM5.66094 11.2799V8.49988C5.66094 8.28655 5.62094 8.14655 5.54094 8.07988C5.46094 7.99988 5.30761 7.95988 5.08094 7.95988H3.26094V11.8199H5.08094C5.30761 11.8199 5.46094 11.7866 5.54094 11.7199C5.62094 11.6399 5.66094 11.4932 5.66094 11.2799ZM0.960938 0.879883H5.76094C7.21427 0.879883 7.94094 1.53988 7.94094 2.85988V5.57988C7.94094 6.41988 7.66094 6.93321 7.10094 7.11988C7.66094 7.30655 7.94094 7.78655 7.94094 8.55988V11.5199C7.94094 12.8399 7.21427 13.4999 5.76094 13.4999H0.960938V0.879883ZM17.8695 0.879883H20.3095C21.7628 0.879883 22.4895 1.53988 22.4895 2.85988V11.5199C22.4895 12.8399 21.7628 13.4999 20.3095 13.4999H17.8695C16.4162 13.4999 15.6895 12.8399 15.6895 11.5199V2.85988C15.6895 1.53988 16.4162 0.879883 17.8695 0.879883ZM20.1895 11.1999V3.17988C20.1895 2.96655 20.1495 2.82655 20.0695 2.75988C19.9895 2.67988 19.8428 2.63988 19.6295 2.63988H18.5695C18.3428 2.63988 18.1895 2.67988 18.1095 2.75988C18.0295 2.82655 17.9895 2.96655 17.9895 3.17988V11.1999C17.9895 11.4132 18.0295 11.5599 18.1095 11.6399C18.1895 11.7066 18.3428 11.7399 18.5695 11.7399H19.6295C19.8428 11.7399 19.9895 11.7066 20.0695 11.6399C20.1495 11.5599 20.1895 11.4132 20.1895 11.1999ZM32.4437 0.879883H34.8837C36.337 0.879883 37.0637 1.53988 37.0637 2.85988V11.5199C37.0637 12.8399 36.337 13.4999 34.8837 13.4999H32.4437C30.9904 13.4999 30.2637 12.8399 30.2637 11.5199V2.85988C30.2637 1.53988 30.9904 0.879883 32.4437 0.879883ZM34.7637 11.1999V3.17988C34.7637 2.96655 34.7237 2.82655 34.6437 2.75988C34.5637 2.67988 34.417 2.63988 34.2037 2.63988H33.1437C32.917 2.63988 32.7637 2.67988 32.6837 2.75988C32.6037 2.82655 32.5637 2.96655 32.5637 3.17988V11.1999C32.5637 11.4132 32.6037 11.5599 32.6837 11.6399C32.7637 11.7066 32.917 11.7399 33.1437 11.7399H34.2037C34.417 11.7399 34.5637 11.7066 34.6437 11.6399C34.7237 11.5599 34.7637 11.4132 34.7637 11.1999ZM52.3179 0.879883L49.7179 7.15988L52.2979 13.4999H49.8179L47.3179 7.15988L49.8379 0.879883H52.3179ZM44.9179 13.4999V0.879883H47.2179V13.4999H44.9179ZM73.8362 13.4999L73.3562 10.8799H70.5962L70.1562 13.4999H67.8562L70.3962 0.879883H73.4962L76.1562 13.4999H73.8362ZM70.8962 9.13988H73.0362L71.9362 3.09988L70.8962 9.13988ZM88.1495 0.879883H90.2495V13.4999H88.0895L85.3895 5.13988V13.4999H83.2695V0.879883H85.4895L88.1495 9.11988V0.879883ZM98.2953 0.879883H103.095C104.549 0.879883 105.275 1.53988 105.275 2.85988V11.5199C105.275 12.8399 104.549 13.4999 103.095 13.4999H98.2953V0.879883ZM102.955 11.2799V3.09988C102.955 2.88655 102.915 2.74655 102.835 2.67988C102.755 2.59988 102.609 2.55988 102.395 2.55988H100.595V11.8199H102.395C102.609 11.8199 102.755 11.7866 102.835 11.7199C102.915 11.6399 102.955 11.4932 102.955 11.2799ZM128.204 0.879883V2.63988H125.984V13.4999H123.684V2.63988H121.484V0.879883H128.204ZM137.558 8.57988V13.4999H135.258V0.879883H139.898C141.351 0.879883 142.078 1.53988 142.078 2.85988V6.59988C142.078 7.69321 141.591 8.33321 140.618 8.51988L142.718 13.4999H140.238L138.318 8.57988H137.558ZM137.558 2.63988V6.87988H139.218C139.431 6.87988 139.578 6.84655 139.658 6.77988C139.738 6.69988 139.778 6.55321 139.778 6.33988V3.17988C139.778 2.96655 139.738 2.82655 139.658 2.75988C139.578 2.67988 139.431 2.63988 139.218 2.63988H137.558ZM155.032 13.4999L154.552 10.8799H151.792L151.352 13.4999H149.052L151.592 0.879883H154.692L157.352 13.4999H155.032ZM152.092 9.13988H154.232L153.132 3.09988L152.092 9.13988ZM169.285 0.879883H171.645L169.145 13.4999H166.125L163.625 0.879883H166.005L167.625 11.0799L169.285 0.879883ZM181.047 11.7399H184.887V13.4999H178.727V0.879883H184.727V2.63988H181.047V6.13988H184.147V7.91988H181.047V11.7399ZM194.507 11.7399H197.867V13.4999H192.207V0.879883H194.507V11.7399Z" fill="#262933"/>
</g>
<defs>
<clipPath id="clip0_11616_36102">
<rect width="198" height="14" fill="white"/>
</clipPath>
</defs>
</svg>
