<svg width="191" height="58" viewBox="0 0 191 58" fill="none" xmlns="http://www.w3.org/2000/svg">
<path d="M15.9103 0.87207C15.7037 2.57101 15.4053 4.04037 15.015 5.69339C14.3721 4.33883 13.4997 2.63989 12.4206 0.87207H15.9103Z" fill="#A5C180"/>
<path d="M14.2803 8.76986C13.9818 10.0555 13.6834 11.479 13.339 13.2009C13.0176 14.8769 12.8109 16.7365 12.7191 18.6421C10.01 14.8539 7.76003 9.78004 6.70393 0.87207H10.1707C12.3518 4.22404 13.8211 7.64489 14.2803 8.76986Z" fill="#A5C180"/>
<path d="M28.6754 0.87207C26.9994 2.73172 25.6678 3.87965 24.428 4.95871C24.3132 5.05055 24.1984 5.16534 24.0836 5.25717C24.0836 4.08628 24.0607 2.52509 23.9918 0.87207H28.6754Z" fill="#A5C180"/>
<path d="M5.44121 28.8127C4.98203 29.3867 4.56877 29.9377 4.22439 30.4887H0V23.4634C2.778 25.5067 4.66061 27.7796 5.44121 28.8127Z" fill="#A5C180"/>
<path d="M12.6502 25.0475C12.7191 27.0678 12.8339 28.9505 12.9487 30.4887H6.56617C7.96665 28.675 9.91813 26.6776 12.6502 25.0475Z" fill="#A5C180"/>
<path d="M6.10701 8.37986C4.56878 8.01252 2.15812 7.23192 0 5.8544V0.872367H4.79836C5.11978 3.69628 5.556 6.15287 6.10701 8.37986Z" fill="#A5C180"/>
<path d="M11.686 20.4558C7.46157 18.8028 3.53564 16.4151 0 13.2927V8.12698C2.66321 9.61929 5.41825 10.2851 6.70393 10.5376C7.92074 14.5324 9.59673 17.6319 11.686 20.4558Z" fill="#A5C180"/>
<path d="M0 15.7952C3.8341 18.9405 8.05849 21.3053 12.6043 22.8435C10.1707 24.1521 8.24217 25.7592 6.72689 27.3434C5.64784 25.9659 3.35197 23.3256 0 21.0986V15.7952Z" fill="#A5C180"/>
<path d="M20.3873 30.4889H14.8543C14.7165 28.6752 14.5788 26.3334 14.5328 23.8539C16.8517 26.4252 18.872 28.7211 20.3873 30.4889Z" fill="#A5C180"/>
<path d="M22.1781 6.97907C20.0429 9.16015 19.2623 11.2264 19.2623 16.3233C19.2623 19.813 18.2981 22.8435 17.6323 24.4736C17.0124 23.7848 16.3695 23.0731 15.7037 22.3384C15.2905 21.8793 14.9002 21.4201 14.4869 20.9609C14.5328 18.3895 14.7165 15.8182 15.1527 13.5912C15.6349 11.0428 16.117 9.09128 16.5073 7.39234C17.0583 5.09647 17.4945 3.21386 17.7471 0.87207H22.0633C22.224 3.55824 22.201 6.03777 22.1781 6.97907Z" fill="#A5C180"/>
<path d="M32.6013 10.3768V16.1165C30.0299 16.8511 28.0784 18.1827 26.7468 20.1113C24.8183 22.9122 24.8413 26.1035 24.9331 27.4351C23.7852 28.3534 22.9127 29.2488 22.3388 29.8687C21.4434 28.8126 20.3184 27.5269 19.0327 26.0805C19.6296 24.7489 20.8924 21.5347 21.122 17.5169C21.9944 17.471 23.2571 16.9889 24.9101 15.4736L25.4152 15.0144C27.8029 12.7874 28.6983 11.9609 31.1779 11.1115C31.6141 10.9278 32.0962 10.6753 32.6013 10.3768Z" fill="#A5C180"/>
<path d="M32.6013 23.4864C30.3743 23.9915 28.4228 24.9787 26.7928 26.0577C26.8387 24.7491 27.1371 22.8894 28.2851 21.2364C29.2723 19.813 30.7187 18.7798 32.6243 18.1599V23.4864H32.6013Z" fill="#A5C180"/>
<path d="M24.4051 30.4889C25.9892 28.9047 28.928 26.4711 32.6013 25.4839V30.4889H24.4051Z" fill="#A5C180"/>
<path d="M32.6013 0.87207V8.03518C31.8666 8.58619 31.1549 8.99944 30.581 9.20607C27.757 10.1933 26.6321 11.2264 24.1755 13.4993L23.6704 13.9585C22.4995 15.0376 21.65 15.4049 21.1679 15.4968C21.2597 10.8361 22.1781 9.5275 24.2903 7.62193C24.7265 7.23163 25.1627 6.84132 25.6219 6.45103C27.1831 5.11942 28.882 3.65007 31.2008 0.87207H32.6013Z" fill="#A5C180"/>
<path d="M60.7264 25.6908C60.2442 25.6908 59.8539 25.6448 59.5096 25.553C59.1652 25.4612 58.8438 25.3005 58.5223 25.0479C58.2009 24.7954 57.8795 24.4739 57.5351 24.0607C57.1907 23.6474 56.7775 23.0964 56.3183 22.4077L54.0454 17.7471C56.1576 17.219 57.8336 16.2547 59.0274 14.8543C60.2213 13.4538 60.8182 11.64 60.8182 9.41306C60.8182 8.03554 60.5886 6.79577 60.1294 5.73967C59.6703 4.66061 59.0274 3.76523 58.2009 3.03055C57.3744 2.29587 56.4101 1.74486 55.2852 1.37752C54.1602 0.987223 52.9434 0.803554 51.6118 0.803554H42.2446V5.11978H51.5659C52.2776 5.11978 52.9204 5.18866 53.5174 5.32642C54.1143 5.46417 54.6423 5.69375 55.0785 6.01518C55.5148 6.3366 55.8821 6.74985 56.1346 7.2779C56.3872 7.80595 56.5249 8.42583 56.5249 9.18347C56.5249 10.7447 56.0658 11.8696 55.1474 12.5584C54.2291 13.2472 53.0352 13.6145 51.5429 13.6145H45.9869C45.0226 13.6145 44.0813 13.6834 43.163 13.7982C42.8416 13.8441 42.5431 13.913 42.2217 14.0048V18.3669C42.5431 18.2751 42.8645 18.2062 43.1859 18.1603C44.1043 18.0226 45.0456 17.9537 45.9869 17.9537H49.4077L52.9663 25.4382C53.5174 26.5861 54.1372 27.4815 54.849 28.1014C55.5607 28.7213 56.2954 29.1805 57.0759 29.4789C57.8565 29.7774 58.6831 29.9381 59.5325 29.984C60.382 30.0299 61.2315 30.0529 62.058 30.0529V25.6678L60.7264 25.6908Z" fill="#30342C"/>
<path d="M73.3536 25.6908V18.2981C74.249 17.8389 75.1444 17.5175 76.0857 17.3797C77.0041 17.242 77.9454 17.1731 78.8867 17.1731H85.2692V12.8569H78.8867C77.9224 12.8569 76.9811 12.9028 76.0628 13.0405C75.1444 13.1783 74.249 13.4767 73.3536 13.9818V5.09683H89.6314V0.780587H69.1063V29.984H91.3762V25.6678H73.3536V25.6908Z" fill="#30342C"/>
<path d="M130.36 0.803554L123.151 22.6372L115.804 0.803554H111.419L112.911 5.41824L107.424 22.6372L99.6643 0.803554H95.2792L105.174 30.007H109.789L115.276 12.7421L120.901 30.007H125.516L134.837 0.803554H130.36Z" fill="#30342C"/>
<path d="M137.408 0.803554V5.11978H147.832V30.007H151.987V5.11978H162.273V0.803554H137.408Z" fill="#30342C"/>
<path d="M189.869 17.4486C189.479 16.3695 188.813 15.4512 187.849 14.7165C186.884 13.9818 185.576 13.4079 183.923 13.0176C182.27 12.6273 180.157 12.4206 177.609 12.4206C176.346 12.4206 175.336 12.3288 174.533 12.1451C173.729 11.9615 173.109 11.7089 172.627 11.4105C172.168 11.089 171.823 10.7447 171.64 10.3314C171.456 9.91815 171.364 9.50489 171.364 9.06868C171.364 8.44879 171.525 7.8289 171.823 7.25494C172.145 6.68097 172.558 6.15292 173.109 5.7167C173.66 5.28049 174.303 4.91315 175.015 4.66061C175.749 4.40806 176.53 4.27031 177.356 4.27031C178.298 4.27031 179.147 4.33918 179.928 4.45397C180.708 4.56877 181.443 4.7754 182.132 5.05091C182.844 5.32641 183.532 5.69375 184.221 6.12997C184.91 6.56618 185.645 7.11719 186.425 7.73708L189.088 4.61469C187.343 2.89279 185.507 1.69893 183.578 1.01017C181.65 0.321413 179.56 0 177.356 0C175.795 0 174.349 0.252543 173.04 0.757634C171.709 1.26272 170.584 1.95149 169.642 2.80096C168.678 3.65043 167.943 4.63765 167.415 5.73967C166.887 6.84169 166.612 7.98961 166.612 9.1605C166.612 11.686 167.53 13.5915 169.344 14.8313C171.181 16.094 173.844 16.7139 177.379 16.7139C178.413 16.7139 179.469 16.7369 180.502 16.7828C181.535 16.8287 182.476 16.9894 183.28 17.2649C184.083 17.5404 184.749 17.9766 185.254 18.5736C185.759 19.1705 186.012 20.02 186.012 21.1449C186.012 22.0633 185.759 22.8439 185.277 23.5097C184.772 24.1755 184.129 24.7265 183.326 25.1398C182.522 25.576 181.581 25.8744 180.548 26.104C179.515 26.3106 178.436 26.4254 177.379 26.4254C176.231 26.4254 175.198 26.2647 174.257 25.9663C173.339 25.6678 172.489 25.2775 171.755 24.8413C171.02 24.4051 170.377 23.877 169.826 23.349C169.275 22.8209 168.816 22.3158 168.426 21.8337L165.372 24.7035C166.107 25.6448 166.933 26.4943 167.852 27.229C168.77 27.9866 169.757 28.6065 170.813 29.1346C171.846 29.6396 172.925 30.0529 174.05 30.3284C175.152 30.6039 176.277 30.7417 177.402 30.7417C179.262 30.7417 180.984 30.5121 182.568 30.0759C184.152 29.6397 185.53 28.9968 186.701 28.1703C187.872 27.3438 188.767 26.3336 189.433 25.1627C190.099 23.9689 190.42 22.6602 190.42 21.1909C190.443 19.7674 190.259 18.5506 189.869 17.4486Z" fill="#30342C"/>
<path d="M8.48712 47.1881V48.4043H5.03241V57.8805H3.58486V48.4043H0.115234V47.1881H8.48712Z" fill="#5C6853"/>
<path d="M14.4976 57.8805V50.322H15.2587C15.403 50.322 15.5025 50.3493 15.5572 50.404C15.6119 50.4588 15.6492 50.5533 15.6691 50.6876L15.7587 51.8665C16.0173 51.3392 16.3357 50.9288 16.7137 50.6354C17.0968 50.3369 17.5445 50.1877 18.0568 50.1877C18.2657 50.1877 18.4548 50.2125 18.6239 50.2623C18.793 50.307 18.9497 50.3717 19.094 50.4563L18.9224 51.4487C18.8875 51.573 18.8104 51.6352 18.691 51.6352C18.6214 51.6352 18.5145 51.6128 18.3702 51.5681C18.2259 51.5183 18.0245 51.4934 17.7658 51.4934C17.3032 51.4934 16.9152 51.6277 16.6018 51.8964C16.2934 52.165 16.0347 52.5555 15.8258 53.0678V57.8805H14.4976Z" fill="#5C6853"/>
<path d="M29.4032 50.2026C29.8558 50.2026 30.2737 50.2797 30.6567 50.4339C31.0398 50.5831 31.3705 50.802 31.6491 51.0905C31.9277 51.3741 32.1441 51.7272 32.2983 52.1501C32.4575 52.5679 32.537 53.0454 32.537 53.5827C32.537 53.7916 32.5147 53.9309 32.4699 54.0005C32.4251 54.0702 32.3406 54.105 32.2162 54.105H27.1871C27.197 54.5825 27.2617 54.9979 27.3811 55.3511C27.5005 55.7043 27.6646 56.0002 27.8736 56.239C28.0825 56.4728 28.3312 56.6494 28.6197 56.7688C28.9082 56.8832 29.2316 56.9404 29.5897 56.9404C29.923 56.9404 30.209 56.9031 30.4478 56.8285C30.6915 56.7489 30.9005 56.6643 31.0746 56.5748C31.2487 56.4852 31.3929 56.4032 31.5073 56.3285C31.6267 56.2489 31.7287 56.2092 31.8133 56.2092C31.9227 56.2092 32.0073 56.2514 32.067 56.336L32.44 56.821C32.2759 57.02 32.0794 57.1941 31.8506 57.3433C31.6218 57.4876 31.3755 57.607 31.1119 57.7015C30.8532 57.796 30.5846 57.8656 30.306 57.9104C30.0275 57.9601 29.7514 57.985 29.4778 57.985C28.9555 57.985 28.473 57.898 28.0303 57.7239C27.5925 57.5448 27.212 57.2861 26.8886 56.9478C26.5703 56.6046 26.3216 56.1818 26.1425 55.6794C25.9634 55.177 25.8739 54.5999 25.8739 53.9483C25.8739 53.421 25.9534 52.9285 26.1126 52.4709C26.2768 52.0133 26.5106 51.6178 26.814 51.2845C27.1175 50.9463 27.488 50.6826 27.9258 50.4936C28.3635 50.2996 28.856 50.2026 29.4032 50.2026ZM29.433 51.1801C28.7913 51.1801 28.2864 51.3666 27.9183 51.7397C27.5502 52.1078 27.3214 52.6201 27.2319 53.2768H31.3432C31.3432 52.9683 31.3009 52.6873 31.2163 52.4336C31.1318 52.1749 31.0074 51.9536 30.8433 51.7695C30.6791 51.5805 30.4776 51.4362 30.2389 51.3367C30.0051 51.2323 29.7365 51.1801 29.433 51.1801Z" fill="#5C6853"/>
<path d="M43.1237 50.2026C43.5764 50.2026 43.9942 50.2797 44.3773 50.4339C44.7603 50.5831 45.0911 50.802 45.3697 51.0905C45.6482 51.3741 45.8646 51.7272 46.0188 52.1501C46.178 52.5679 46.2576 53.0454 46.2576 53.5827C46.2576 53.7916 46.2352 53.9309 46.1904 54.0005C46.1457 54.0702 46.0611 54.105 45.9367 54.105H40.9076C40.9176 54.5825 40.9823 54.9979 41.1016 55.3511C41.221 55.7043 41.3852 56.0002 41.5941 56.239C41.803 56.4728 42.0517 56.6494 42.3403 56.7688C42.6288 56.8832 42.9521 56.9404 43.3103 56.9404C43.6436 56.9404 43.9296 56.9031 44.1683 56.8285C44.4121 56.7489 44.621 56.6643 44.7951 56.5748C44.9692 56.4852 45.1135 56.4032 45.2279 56.3285C45.3473 56.2489 45.4492 56.2092 45.5338 56.2092C45.6432 56.2092 45.7278 56.2514 45.7875 56.336L46.1606 56.821C45.9964 57.02 45.7999 57.1941 45.5711 57.3433C45.3423 57.4876 45.0961 57.607 44.8324 57.7015C44.5738 57.796 44.3051 57.8656 44.0266 57.9104C43.748 57.9601 43.4719 57.985 43.1983 57.985C42.676 57.985 42.1935 57.898 41.7508 57.7239C41.313 57.5448 40.9325 57.2861 40.6092 56.9478C40.2908 56.6046 40.0421 56.1818 39.863 55.6794C39.6839 55.177 39.5944 54.5999 39.5944 53.9483C39.5944 53.421 39.674 52.9285 39.8332 52.4709C39.9973 52.0133 40.2311 51.6178 40.5346 51.2845C40.838 50.9463 41.2086 50.6826 41.6463 50.4936C42.0841 50.2996 42.5765 50.2026 43.1237 50.2026ZM43.1536 51.1801C42.5119 51.1801 42.007 51.3666 41.6389 51.7397C41.2708 52.1078 41.0419 52.6201 40.9524 53.2768H45.0637C45.0637 52.9683 45.0215 52.6873 44.9369 52.4336C44.8523 52.1749 44.728 51.9536 44.5638 51.7695C44.3997 51.5805 44.1982 51.4362 43.9594 51.3367C43.7256 51.2323 43.457 51.1801 43.1536 51.1801Z" fill="#5C6853"/>
<path d="M58.1799 51.5681C58.1202 51.6775 58.0282 51.7322 57.9038 51.7322C57.8292 51.7322 57.7446 51.7048 57.6501 51.6501C57.5556 51.5954 57.4387 51.5357 57.2994 51.4711C57.1651 51.4014 57.0035 51.3392 56.8144 51.2845C56.6254 51.2248 56.4016 51.195 56.1429 51.195C55.919 51.195 55.7176 51.2248 55.5385 51.2845C55.3594 51.3392 55.2052 51.4163 55.0759 51.5158C54.9515 51.6153 54.8545 51.7322 54.7849 51.8665C54.7202 51.9959 54.6879 52.1376 54.6879 52.2918C54.6879 52.4858 54.7426 52.6475 54.852 52.7768C54.9664 52.9062 55.1157 53.0181 55.2997 53.1126C55.4838 53.2071 55.6927 53.2917 55.9265 53.3663C56.1603 53.4359 56.3991 53.513 56.6428 53.5976C56.8915 53.6772 57.1328 53.7667 57.3666 53.8662C57.6004 53.9657 57.8093 54.0901 57.9934 54.2393C58.1774 54.3885 58.3242 54.5726 58.4336 54.7915C58.548 55.0054 58.6052 55.264 58.6052 55.5675C58.6052 55.9157 58.543 56.239 58.4187 56.5375C58.2943 56.8309 58.1103 57.0871 57.8665 57.306C57.6228 57.5199 57.3243 57.689 56.9711 57.8134C56.6179 57.9377 56.21 57.9999 55.7474 57.9999C55.2201 57.9999 54.7426 57.9154 54.3148 57.7462C53.887 57.5721 53.5239 57.3508 53.2254 57.0822L53.5388 56.5748C53.5786 56.5101 53.6258 56.4604 53.6806 56.4255C53.7353 56.3907 53.8074 56.3733 53.8969 56.3733C53.9865 56.3733 54.081 56.4081 54.1805 56.4778C54.28 56.5474 54.3994 56.6245 54.5386 56.7091C54.6829 56.7936 54.8545 56.8707 55.0535 56.9404C55.2574 57.01 55.5111 57.0448 55.8146 57.0448C56.0732 57.0448 56.2996 57.0125 56.4936 56.9478C56.6876 56.8782 56.8492 56.7862 56.9786 56.6718C57.1079 56.5574 57.2024 56.4255 57.2621 56.2763C57.3268 56.1271 57.3591 55.9679 57.3591 55.7988C57.3591 55.5898 57.3019 55.4182 57.1875 55.2839C57.0781 55.1446 56.9313 55.0277 56.7473 54.9332C56.5632 54.8337 56.3518 54.7492 56.113 54.6795C55.8792 54.6049 55.638 54.5278 55.3893 54.4482C55.1455 54.3686 54.9043 54.2791 54.6655 54.1796C54.4317 54.0751 54.2228 53.9458 54.0387 53.7916C53.8547 53.6374 53.7054 53.4484 53.591 53.2245C53.4816 52.9957 53.4269 52.7196 53.4269 52.3963C53.4269 52.1078 53.4866 51.8317 53.6059 51.5681C53.7253 51.2994 53.8994 51.0656 54.1283 50.8667C54.3571 50.6627 54.6381 50.501 54.9714 50.3817C55.3047 50.2623 55.6852 50.2026 56.113 50.2026C56.6105 50.2026 57.0557 50.2822 57.4487 50.4414C57.8466 50.5956 58.1898 50.8095 58.4784 51.0831L58.1799 51.5681Z" fill="#5C6853"/>
<path d="M78.8328 47.0687C79.2258 47.0687 79.5839 47.1334 79.9073 47.2627C80.2306 47.3871 80.5092 47.5537 80.743 47.7627C80.9818 47.9716 81.1683 48.2153 81.3026 48.4939C81.4419 48.7675 81.5215 49.0535 81.5414 49.352L80.7131 49.5161C80.6883 49.5211 80.6659 49.5236 80.646 49.5236C80.5813 49.5236 80.5191 49.5062 80.4594 49.4714C80.4047 49.4365 80.3649 49.3744 80.3401 49.2848C80.3052 49.1555 80.248 49.0212 80.1684 48.8819C80.0938 48.7426 79.9943 48.6158 79.87 48.5013C79.7506 48.3869 79.6039 48.2924 79.4297 48.2178C79.2606 48.1432 79.0616 48.1059 78.8328 48.1059C78.5841 48.1059 78.3602 48.1457 78.1613 48.2253C77.9623 48.3049 77.7907 48.4168 77.6464 48.561C77.5071 48.7003 77.3977 48.867 77.3181 49.061C77.2435 49.25 77.2062 49.4564 77.2062 49.6803C77.2062 49.8544 77.2261 50.021 77.2659 50.1802C77.3107 50.3394 77.3753 50.501 77.4599 50.6652C77.5444 50.8244 77.6539 50.991 77.7882 51.1651C77.9225 51.3343 78.0842 51.5133 78.2732 51.7024L81.3474 54.8288C81.5364 54.4955 81.6856 54.1473 81.7951 53.7841C81.9095 53.416 81.9866 53.0479 82.0264 52.6798C82.0363 52.5853 82.0662 52.5107 82.1159 52.456C82.1656 52.4013 82.2353 52.3739 82.3248 52.3739H83.1456C83.1357 52.946 83.0436 53.5081 82.8695 54.0602C82.6954 54.6124 82.4442 55.1297 82.1159 55.6122L84.3544 57.8805H83.071C82.9267 57.8805 82.8098 57.8631 82.7203 57.8283C82.6308 57.7935 82.5313 57.7214 82.4218 57.6119L81.3474 56.53C80.8798 56.9827 80.3401 57.3408 79.7282 57.6045C79.1213 57.8681 78.4523 57.9999 77.721 57.9999C77.3231 57.9999 76.9326 57.9328 76.5496 57.7985C76.1665 57.6642 75.8233 57.4702 75.5199 57.2165C75.2214 56.9578 74.9802 56.6444 74.7961 56.2763C74.6121 55.9082 74.52 55.4928 74.52 55.0302C74.52 54.682 74.5772 54.3537 74.6916 54.0453C74.811 53.7319 74.9727 53.4434 75.1766 53.1798C75.3856 52.9161 75.6318 52.6798 75.9153 52.4709C76.1989 52.262 76.5098 52.0829 76.848 51.9337C76.5446 51.5506 76.3208 51.1776 76.1765 50.8144C76.0322 50.4513 75.9601 50.0757 75.9601 49.6877C75.9601 49.3246 76.0248 48.9839 76.1541 48.6655C76.2884 48.3471 76.4799 48.0711 76.7287 47.8373C76.9774 47.5985 77.2783 47.412 77.6315 47.2776C77.9897 47.1384 78.3901 47.0687 78.8328 47.0687ZM75.8706 54.9258C75.8706 55.2491 75.9303 55.5351 76.0497 55.7838C76.169 56.0276 76.3257 56.234 76.5197 56.4032C76.7137 56.5723 76.9351 56.7016 77.1838 56.7912C77.4325 56.8757 77.6862 56.918 77.9449 56.918C78.502 56.918 79.0019 56.816 79.4447 56.6121C79.8874 56.4081 80.2779 56.137 80.6161 55.7988L77.4599 52.6127C76.9326 52.8962 76.5347 53.237 76.266 53.6349C76.0024 54.0279 75.8706 54.4582 75.8706 54.9258Z" fill="#5C6853"/>
<path d="M105.142 56.8285C105.431 56.8285 105.694 56.816 105.933 56.7912C106.177 56.7613 106.406 56.719 106.619 56.6643C106.833 56.6096 107.035 56.5449 107.224 56.4703C107.413 56.3907 107.602 56.3012 107.791 56.2017V53.8438H106.134C106.04 53.8438 105.963 53.8165 105.903 53.7618C105.848 53.707 105.821 53.6399 105.821 53.5603V52.7395H109.104V56.8434C108.836 57.0374 108.555 57.2065 108.261 57.3508C107.973 57.495 107.662 57.6169 107.328 57.7164C107 57.8109 106.647 57.8805 106.269 57.9253C105.891 57.9751 105.48 57.9999 105.038 57.9999C104.262 57.9999 103.55 57.8681 102.904 57.6045C102.257 57.3358 101.7 56.9628 101.232 56.4852C100.765 56.0027 100.399 55.4257 100.135 54.7541C99.8767 54.0826 99.7474 53.3439 99.7474 52.5381C99.7474 51.7223 99.8742 50.9786 100.128 50.307C100.387 49.6355 100.752 49.061 101.225 48.5834C101.702 48.1009 102.277 47.7278 102.948 47.4642C103.625 47.2005 104.381 47.0687 105.217 47.0687C105.64 47.0687 106.032 47.1011 106.396 47.1657C106.759 47.2254 107.095 47.315 107.403 47.4343C107.716 47.5488 108.005 47.6905 108.268 47.8597C108.532 48.0238 108.778 48.2103 109.007 48.4193L108.597 49.0759C108.512 49.2102 108.403 49.2774 108.268 49.2774C108.189 49.2774 108.102 49.25 108.007 49.1953C107.883 49.1256 107.744 49.0411 107.589 48.9416C107.435 48.8421 107.246 48.7476 107.022 48.658C106.804 48.5635 106.542 48.4839 106.239 48.4193C105.94 48.3546 105.585 48.3223 105.172 48.3223C104.57 48.3223 104.025 48.4218 103.538 48.6207C103.05 48.8147 102.635 49.0958 102.292 49.4639C101.949 49.827 101.685 50.2697 101.501 50.792C101.317 51.3094 101.225 51.8914 101.225 52.5381C101.225 53.2146 101.319 53.819 101.508 54.3512C101.702 54.8785 101.973 55.3262 102.322 55.6943C102.67 56.0624 103.083 56.3435 103.56 56.5375C104.038 56.7315 104.565 56.8285 105.142 56.8285Z" fill="#5C6853"/>
<path d="M122.57 57.8805H121.981C121.852 57.8805 121.747 57.8606 121.668 57.8209C121.588 57.7811 121.536 57.6965 121.511 57.5672L121.362 56.8658C121.163 57.0448 120.969 57.2065 120.78 57.3508C120.591 57.4901 120.392 57.6094 120.183 57.7089C119.974 57.8034 119.75 57.8756 119.511 57.9253C119.277 57.9751 119.016 57.9999 118.728 57.9999C118.434 57.9999 118.158 57.9601 117.9 57.8805C117.646 57.796 117.424 57.6716 117.235 57.5075C117.046 57.3433 116.895 57.1369 116.78 56.8882C116.671 56.6345 116.616 56.336 116.616 55.9928C116.616 55.6943 116.698 55.4083 116.862 55.1347C117.026 54.8561 117.29 54.6099 117.653 54.396C118.021 54.1821 118.501 54.008 119.093 53.8737C119.685 53.7344 120.409 53.6548 121.265 53.6349V53.0454C121.265 52.4585 121.138 52.0157 120.884 51.7173C120.635 51.4138 120.265 51.2621 119.772 51.2621C119.449 51.2621 119.175 51.3044 118.952 51.389C118.733 51.4686 118.541 51.5606 118.377 51.6651C118.218 51.7645 118.079 51.8566 117.959 51.9411C117.845 52.0207 117.73 52.0605 117.616 52.0605C117.526 52.0605 117.447 52.0381 117.377 51.9934C117.313 51.9436 117.26 51.8839 117.22 51.8143L116.982 51.389C117.4 50.9861 117.85 50.6851 118.332 50.4861C118.815 50.2872 119.35 50.1877 119.937 50.1877C120.359 50.1877 120.735 50.2573 121.063 50.3966C121.392 50.5359 121.668 50.7299 121.891 50.9786C122.115 51.2273 122.284 51.5283 122.399 51.8814C122.513 52.2346 122.57 52.6226 122.57 53.0454V57.8805ZM119.123 57.0672C119.357 57.0672 119.571 57.0448 119.765 57.0001C119.959 56.9503 120.14 56.8832 120.31 56.7986C120.484 56.7091 120.648 56.6021 120.802 56.4778C120.961 56.3534 121.115 56.2116 121.265 56.0525V54.4781C120.653 54.498 120.133 54.5477 119.705 54.6273C119.277 54.7019 118.929 54.8014 118.661 54.9258C118.392 55.0501 118.195 55.1969 118.071 55.366C117.952 55.5351 117.892 55.7241 117.892 55.9331C117.892 56.132 117.924 56.3037 117.989 56.4479C118.054 56.5922 118.141 56.7116 118.25 56.8061C118.36 56.8956 118.489 56.9628 118.638 57.0075C118.787 57.0473 118.949 57.0672 119.123 57.0672Z" fill="#5C6853"/>
<path d="M130.477 57.8805V50.322H131.238C131.383 50.322 131.482 50.3493 131.537 50.404C131.592 50.4588 131.629 50.5533 131.649 50.6876L131.738 51.8665C131.997 51.3392 132.315 50.9288 132.693 50.6354C133.076 50.3369 133.524 50.1877 134.036 50.1877C134.245 50.1877 134.434 50.2125 134.604 50.2623C134.773 50.307 134.929 50.3717 135.074 50.4563L134.902 51.4487C134.867 51.573 134.79 51.6352 134.671 51.6352C134.601 51.6352 134.494 51.6128 134.35 51.5681C134.206 51.5183 134.004 51.4934 133.745 51.4934C133.283 51.4934 132.895 51.6277 132.581 51.8964C132.273 52.165 132.014 52.5555 131.805 53.0678V57.8805H130.477Z" fill="#5C6853"/>
<path d="M147.711 57.8805C147.522 57.8805 147.402 57.7885 147.353 57.6045L147.233 56.6867C146.91 57.0797 146.539 57.3955 146.121 57.6343C145.709 57.8681 145.234 57.985 144.696 57.985C144.264 57.985 143.871 57.9029 143.517 57.7388C143.164 57.5696 142.863 57.3234 142.615 57.0001C142.366 56.6767 142.174 56.2738 142.04 55.7913C141.906 55.3088 141.839 54.7541 141.839 54.1274C141.839 53.5702 141.913 53.0529 142.062 52.5754C142.212 52.0929 142.426 51.675 142.704 51.3218C142.988 50.9686 143.331 50.6926 143.734 50.4936C144.137 50.2896 144.594 50.1877 145.107 50.1877C145.569 50.1877 145.965 50.2673 146.293 50.4264C146.621 50.5806 146.915 50.7995 147.174 51.0831V46.8896H148.502V57.8805H147.711ZM145.137 56.9105C145.569 56.9105 145.947 56.8111 146.271 56.6121C146.599 56.4131 146.9 56.132 147.174 55.7689V52.1127C146.93 51.7844 146.661 51.5556 146.368 51.4263C146.079 51.292 145.758 51.2248 145.405 51.2248C144.699 51.2248 144.157 51.476 143.779 51.9784C143.401 52.4809 143.211 53.1972 143.211 54.1274C143.211 54.6198 143.254 55.0427 143.338 55.3958C143.423 55.744 143.547 56.0326 143.711 56.2614C143.876 56.4852 144.077 56.6494 144.316 56.7538C144.555 56.8583 144.828 56.9105 145.137 56.9105Z" fill="#5C6853"/>
<path d="M159.613 50.2026C160.066 50.2026 160.484 50.2797 160.867 50.4339C161.25 50.5831 161.581 50.802 161.859 51.0905C162.138 51.3741 162.354 51.7272 162.508 52.1501C162.668 52.5679 162.747 53.0454 162.747 53.5827C162.747 53.7916 162.725 53.9309 162.68 54.0005C162.635 54.0702 162.551 54.105 162.426 54.105H157.397C157.407 54.5825 157.472 54.9979 157.591 55.3511C157.711 55.7043 157.875 56.0002 158.084 56.239C158.293 56.4728 158.541 56.6494 158.83 56.7688C159.118 56.8832 159.442 56.9404 159.8 56.9404C160.133 56.9404 160.419 56.9031 160.658 56.8285C160.902 56.7489 161.111 56.6643 161.285 56.5748C161.459 56.4852 161.603 56.4032 161.718 56.3285C161.837 56.2489 161.939 56.2092 162.023 56.2092C162.133 56.2092 162.217 56.2514 162.277 56.336L162.65 56.821C162.486 57.02 162.29 57.1941 162.061 57.3433C161.832 57.4876 161.586 57.607 161.322 57.7015C161.063 57.796 160.795 57.8656 160.516 57.9104C160.238 57.9601 159.962 57.985 159.688 57.985C159.166 57.985 158.683 57.898 158.24 57.7239C157.803 57.5448 157.422 57.2861 157.099 56.9478C156.78 56.6046 156.532 56.1818 156.353 55.6794C156.174 55.177 156.084 54.5999 156.084 53.9483C156.084 53.421 156.164 52.9285 156.323 52.4709C156.487 52.0133 156.721 51.6178 157.024 51.2845C157.328 50.9463 157.698 50.6826 158.136 50.4936C158.574 50.2996 159.066 50.2026 159.613 50.2026ZM159.643 51.1801C159.002 51.1801 158.497 51.3666 158.129 51.7397C157.76 52.1078 157.532 52.6201 157.442 53.2768H161.553C161.553 52.9683 161.511 52.6873 161.427 52.4336C161.342 52.1749 161.218 51.9536 161.053 51.7695C160.889 51.5805 160.688 51.4362 160.449 51.3367C160.215 51.2323 159.947 51.1801 159.643 51.1801Z" fill="#5C6853"/>
<path d="M170.342 57.8805V50.322H171.133C171.322 50.322 171.441 50.414 171.491 50.598L171.595 51.4188C171.924 51.0557 172.289 50.7622 172.692 50.5384C173.1 50.3145 173.57 50.2026 174.102 50.2026C174.515 50.2026 174.878 50.2722 175.192 50.4115C175.51 50.5458 175.774 50.7398 175.983 50.9935C176.197 51.2422 176.358 51.5432 176.468 51.8964C176.577 52.2495 176.632 52.64 176.632 53.0678V57.8805H175.304V53.0678C175.304 52.4958 175.172 52.0531 174.908 51.7397C174.65 51.4213 174.252 51.2621 173.714 51.2621C173.322 51.2621 172.953 51.3566 172.61 51.5457C172.272 51.7347 171.959 51.9909 171.67 52.3142V57.8805H170.342Z" fill="#5C6853"/>
<path d="M188.856 51.5681C188.797 51.6775 188.705 51.7322 188.58 51.7322C188.506 51.7322 188.421 51.7048 188.327 51.6501C188.232 51.5954 188.115 51.5357 187.976 51.4711C187.842 51.4014 187.68 51.3392 187.491 51.2845C187.302 51.2248 187.078 51.195 186.819 51.195C186.596 51.195 186.394 51.2248 186.215 51.2845C186.036 51.3392 185.882 51.4163 185.752 51.5158C185.628 51.6153 185.531 51.7322 185.461 51.8665C185.397 51.9959 185.364 52.1376 185.364 52.2918C185.364 52.4858 185.419 52.6475 185.529 52.7768C185.643 52.9062 185.792 53.0181 185.976 53.1126C186.16 53.2071 186.369 53.2917 186.603 53.3663C186.837 53.4359 187.076 53.513 187.319 53.5976C187.568 53.6772 187.809 53.7667 188.043 53.8662C188.277 53.9657 188.486 54.0901 188.67 54.2393C188.854 54.3885 189.001 54.5726 189.11 54.7915C189.225 55.0054 189.282 55.264 189.282 55.5675C189.282 55.9157 189.22 56.239 189.095 56.5375C188.971 56.8309 188.787 57.0871 188.543 57.306C188.299 57.5199 188.001 57.689 187.648 57.8134C187.295 57.9377 186.887 57.9999 186.424 57.9999C185.897 57.9999 185.419 57.9154 184.991 57.7462C184.564 57.5721 184.2 57.3508 183.902 57.0822L184.215 56.5748C184.255 56.5101 184.302 56.4604 184.357 56.4255C184.412 56.3907 184.484 56.3733 184.574 56.3733C184.663 56.3733 184.758 56.4081 184.857 56.4778C184.957 56.5474 185.076 56.6245 185.215 56.7091C185.359 56.7936 185.531 56.8707 185.73 56.9404C185.934 57.01 186.188 57.0448 186.491 57.0448C186.75 57.0448 186.976 57.0125 187.17 56.9478C187.364 56.8782 187.526 56.7862 187.655 56.6718C187.785 56.5574 187.879 56.4255 187.939 56.2763C188.003 56.1271 188.036 55.9679 188.036 55.7988C188.036 55.5898 187.979 55.4182 187.864 55.2839C187.755 55.1446 187.608 55.0277 187.424 54.9332C187.24 54.8337 187.028 54.7492 186.79 54.6795C186.556 54.6049 186.315 54.5278 186.066 54.4482C185.822 54.3686 185.581 54.2791 185.342 54.1796C185.108 54.0751 184.899 53.9458 184.715 53.7916C184.531 53.6374 184.382 53.4484 184.268 53.2245C184.158 52.9957 184.103 52.7196 184.103 52.3963C184.103 52.1078 184.163 51.8317 184.283 51.5681C184.402 51.2994 184.576 51.0656 184.805 50.8667C185.034 50.6627 185.315 50.501 185.648 50.3817C185.981 50.2623 186.362 50.2026 186.79 50.2026C187.287 50.2026 187.732 50.2822 188.125 50.4414C188.523 50.5956 188.866 50.8095 189.155 51.0831L188.856 51.5681Z" fill="#5C6853"/>
</svg>
