<svg width="415" height="426" viewBox="0 0 415 426" fill="none" xmlns="http://www.w3.org/2000/svg">
<g filter="url(#filter0_d)">
<path d="M25 24V186L103.5 91.5L25 24Z" stroke="#78CCCC" stroke-width="4"/>
</g>
<g filter="url(#filter1_d)">
<path d="M361.5 25V187L283 92.5L361.5 25Z" stroke="#78CCCC" stroke-width="4"/>
</g>
<g filter="url(#filter2_d)">
<path d="M151.5 341.5L32 198L116.5 98H270.5L353.5 198L229 341.5H151.5Z" stroke="#78CCCC" stroke-width="4"/>
<path d="M224 354.5H159L192 395.5L224 354.5Z" stroke="#78CCCC" stroke-width="4"/>
</g>
<g filter="url(#filter3_d)">
<path d="M55 24V186L133.5 91.5L55 24Z" stroke="#78CCCC"/>
</g>
<g filter="url(#filter4_d)">
<path d="M391.5 25V187L313 92.5L391.5 25Z" stroke="#78CCCC"/>
</g>
<g filter="url(#filter5_d)">
<path d="M181.5 341.5L62 198L146.5 98H300.5L383.5 198L259 341.5H181.5Z" stroke="#78CCCC"/>
<path d="M254 354.5H189L222 395.5L254 354.5Z" stroke="#78CCCC"/>
</g>
<g filter="url(#filter6_d)">
<path d="M193 175.5L116.5 99L98.5 184M193 175.5L269.5 99L283.5 184M193 175.5V341M193 175.5L234.5 205M193 175.5L149 205M193 341L234.5 241M193 341L149 241M283.5 184L353.5 198.5M283.5 184L234.5 205M283.5 184L234.5 241M234.5 205V241M234.5 241L261 305.5M149 205V241M149 205L98.5 184M149 241L98.5 184M149 241L119.5 305.5M98.5 184L32 198.5" stroke="#78CCCC"/>
</g>
<defs>
<filter id="filter0_d" x="0" y="0.642578" width="129.295" height="217.895" filterUnits="userSpaceOnUse" color-interpolation-filters="sRGB">
<feFlood flood-opacity="0" result="BackgroundImageFix"/>
<feColorMatrix in="SourceAlpha" type="matrix" values="0 0 0 0 0 0 0 0 0 0 0 0 0 0 0 0 0 0 127 0"/>
<feOffset dy="4"/>
<feGaussianBlur stdDeviation="11.5"/>
<feColorMatrix type="matrix" values="0 0 0 0 0.470588 0 0 0 0 0.8 0 0 0 0 0.8 0 0 0 1 0"/>
<feBlend mode="normal" in2="BackgroundImageFix" result="effect1_dropShadow"/>
<feBlend mode="normal" in="SourceGraphic" in2="effect1_dropShadow" result="shape"/>
</filter>
<filter id="filter1_d" x="257.205" y="1.64258" width="129.295" height="217.895" filterUnits="userSpaceOnUse" color-interpolation-filters="sRGB">
<feFlood flood-opacity="0" result="BackgroundImageFix"/>
<feColorMatrix in="SourceAlpha" type="matrix" values="0 0 0 0 0 0 0 0 0 0 0 0 0 0 0 0 0 0 127 0"/>
<feOffset dy="4"/>
<feGaussianBlur stdDeviation="11.5"/>
<feColorMatrix type="matrix" values="0 0 0 0 0.470588 0 0 0 0 0.8 0 0 0 0 0.8 0 0 0 1 0"/>
<feBlend mode="normal" in2="BackgroundImageFix" result="effect1_dropShadow"/>
<feBlend mode="normal" in="SourceGraphic" in2="effect1_dropShadow" result="shape"/>
</filter>
<filter id="filter2_d" x="6.38953" y="77" width="372.733" height="348.72" filterUnits="userSpaceOnUse" color-interpolation-filters="sRGB">
<feFlood flood-opacity="0" result="BackgroundImageFix"/>
<feColorMatrix in="SourceAlpha" type="matrix" values="0 0 0 0 0 0 0 0 0 0 0 0 0 0 0 0 0 0 127 0"/>
<feOffset dy="4"/>
<feGaussianBlur stdDeviation="11.5"/>
<feColorMatrix type="matrix" values="0 0 0 0 0.470588 0 0 0 0 0.8 0 0 0 0 0.8 0 0 0 1 0"/>
<feBlend mode="normal" in2="BackgroundImageFix" result="effect1_dropShadow"/>
<feBlend mode="normal" in="SourceGraphic" in2="effect1_dropShadow" result="shape"/>
</filter>
<filter id="filter3_d" x="31.5" y="3.91064" width="125.699" height="210.474" filterUnits="userSpaceOnUse" color-interpolation-filters="sRGB">
<feFlood flood-opacity="0" result="BackgroundImageFix"/>
<feColorMatrix in="SourceAlpha" type="matrix" values="0 0 0 0 0 0 0 0 0 0 0 0 0 0 0 0 0 0 127 0"/>
<feOffset dy="4"/>
<feGaussianBlur stdDeviation="11.5"/>
<feColorMatrix type="matrix" values="0 0 0 0 0.470588 0 0 0 0 0.8 0 0 0 0 0.8 0 0 0 1 0"/>
<feBlend mode="normal" in2="BackgroundImageFix" result="effect1_dropShadow"/>
<feBlend mode="normal" in="SourceGraphic" in2="effect1_dropShadow" result="shape"/>
</filter>
<filter id="filter4_d" x="289.301" y="4.91064" width="125.699" height="210.474" filterUnits="userSpaceOnUse" color-interpolation-filters="sRGB">
<feFlood flood-opacity="0" result="BackgroundImageFix"/>
<feColorMatrix in="SourceAlpha" type="matrix" values="0 0 0 0 0 0 0 0 0 0 0 0 0 0 0 0 0 0 127 0"/>
<feOffset dy="4"/>
<feGaussianBlur stdDeviation="11.5"/>
<feColorMatrix type="matrix" values="0 0 0 0 0.470588 0 0 0 0 0.8 0 0 0 0 0.8 0 0 0 1 0"/>
<feBlend mode="normal" in2="BackgroundImageFix" result="effect1_dropShadow"/>
<feBlend mode="normal" in="SourceGraphic" in2="effect1_dropShadow" result="shape"/>
</filter>
<filter id="filter5_d" x="38.3474" y="78.5" width="368.808" height="344.805" filterUnits="userSpaceOnUse" color-interpolation-filters="sRGB">
<feFlood flood-opacity="0" result="BackgroundImageFix"/>
<feColorMatrix in="SourceAlpha" type="matrix" values="0 0 0 0 0 0 0 0 0 0 0 0 0 0 0 0 0 0 127 0"/>
<feOffset dy="4"/>
<feGaussianBlur stdDeviation="11.5"/>
<feColorMatrix type="matrix" values="0 0 0 0 0.470588 0 0 0 0 0.8 0 0 0 0 0.8 0 0 0 1 0"/>
<feBlend mode="normal" in2="BackgroundImageFix" result="effect1_dropShadow"/>
<feBlend mode="normal" in="SourceGraphic" in2="effect1_dropShadow" result="shape"/>
</filter>
<filter id="filter6_d" x="8.89349" y="78.9578" width="367.708" height="290.314" filterUnits="userSpaceOnUse" color-interpolation-filters="sRGB">
<feFlood flood-opacity="0" result="BackgroundImageFix"/>
<feColorMatrix in="SourceAlpha" type="matrix" values="0 0 0 0 0 0 0 0 0 0 0 0 0 0 0 0 0 0 127 0"/>
<feOffset dy="4"/>
<feGaussianBlur stdDeviation="11.5"/>
<feColorMatrix type="matrix" values="0 0 0 0 0.470588 0 0 0 0 0.8 0 0 0 0 0.8 0 0 0 1 0"/>
<feBlend mode="normal" in2="BackgroundImageFix" result="effect1_dropShadow"/>
<feBlend mode="normal" in="SourceGraphic" in2="effect1_dropShadow" result="shape"/>
</filter>
</defs>
</svg>
