<svg width="86" height="86" viewBox="0 0 86 86" fill="none" xmlns="http://www.w3.org/2000/svg">
<rect width="85.88" height="85.88" rx="42.94" fill="#25A5E6"/>
<path fill-rule="evenodd" clip-rule="evenodd" d="M63.1695 10.0004C63.3555 10.0912 63.5112 10.234 63.6177 10.4115C63.7242 10.589 63.7769 10.7935 63.7695 11.0004C63.7695 11.4804 63.8195 12.5504 63.8495 14.1804C63.9628 16.7937 64.2961 20.2604 64.8495 24.5804C65.3972 28.774 65.377 33.0222 64.7895 37.2104C63.9312 41.8504 62.1933 46.2834 59.6695 50.2704C55.9183 56.8279 50.547 62.3129 44.0695 66.2004C41.7295 67.5337 37.1228 69.9837 30.2495 73.5504C28.1795 74.6704 26.6995 75.4004 25.8195 75.7604C25.2042 76.0859 24.485 76.1542 23.8195 75.9504C23.4095 75.7504 23.0995 75.0904 22.8195 73.9504C22.5395 72.8104 22.1795 70.4004 21.6695 66.6504C21.1595 62.9004 20.8995 60.3104 20.7595 58.7704C20.6174 56.7719 20.6408 54.7651 20.8295 52.7704C21.0697 50.0835 21.6166 47.4329 22.4595 44.8704C23.5101 41.7692 24.9019 38.7943 26.6095 36.0004C32.6095 25.8337 42.0595 18.1037 54.9595 12.8104C56.4622 12.2184 57.934 11.5508 59.3695 10.8104C60.9761 9.83041 62.2428 9.56041 63.1695 10.0004Z" fill="#EBCC8A"/>
<path fill-rule="evenodd" clip-rule="evenodd" d="M52.5104 19.7202C50.7895 19.369 49.0008 19.5939 47.4204 20.3602C45.4442 21.2518 43.64 22.4839 42.0904 24.0002C40.4466 25.5279 39.029 27.2822 37.8804 29.2102C37.0301 30.6534 36.3585 32.1947 35.8804 33.8002C35.3454 35.6076 34.9673 37.4578 34.7504 39.3302C34.5062 41.4514 34.386 43.585 34.3904 45.7202C34.3904 47.9602 34.4804 50.6402 34.6604 53.7202C34.8721 56.3079 34.9189 58.9065 34.8004 61.5002C34.6306 63.1054 34.1554 64.6634 33.4004 66.0902C36.0961 65.7886 38.6916 64.8939 41.0004 63.4702C43.6823 61.9929 46.0071 59.9446 47.8104 57.4702L49.5704 54.4702C50.1686 53.1579 50.6052 51.7778 50.8704 50.3602C51.1678 48.8552 51.3616 47.3316 51.4504 45.8002C51.5504 44.2702 51.6104 42.5602 51.6104 40.7202C51.6104 38.8802 51.6104 36.7202 51.6104 34.2402C51.6104 31.9802 51.6104 30.0902 51.6104 28.5202C51.6104 26.9502 51.6104 25.6902 51.6704 24.7102C51.7089 23.8356 51.7991 22.9641 51.9404 22.1002C52.0844 21.2965 52.2747 20.5018 52.5104 19.7202Z" fill="#FFFBDB"/>
<path fill-rule="evenodd" clip-rule="evenodd" d="M43.6105 48.8099C42.9978 48.6011 42.3333 48.6011 41.7205 48.8099C40.9596 49.044 40.2454 49.4095 39.6105 49.8899C38.9417 50.3761 38.3457 50.9553 37.8405 51.6099C37.4673 52.1003 37.155 52.6342 36.9105 53.1999C36.6327 53.8461 36.4119 54.5153 36.2505 55.1999C36.0656 55.9644 35.9254 56.7391 35.8305 57.5199C35.7305 58.3399 35.6439 59.3232 35.5705 60.4699C35.5348 61.4284 35.438 62.3837 35.2805 63.3299C35.1462 63.9109 34.9018 64.4608 34.5605 64.9499C35.557 64.9614 36.5437 64.7531 37.4505 64.3399C38.4968 63.9224 39.4389 63.2807 40.2105 62.4599L40.9905 61.4599C41.2659 61.0015 41.4842 60.5112 41.6405 59.9999C41.8144 59.4632 41.9513 58.9153 42.0505 58.3599C42.1505 57.7999 42.2505 57.1799 42.3405 56.5099C42.4305 55.8399 42.5205 55.0399 42.6205 54.1399C42.7205 53.2399 42.8005 52.6199 42.8605 52.0499C42.9205 51.4799 42.9905 51.0499 43.0505 50.6599C43.1052 50.3425 43.1787 50.0286 43.2705 49.7199C43.365 49.4098 43.4785 49.1059 43.6105 48.8099Z" fill="#B9C598"/>
</svg>
