<svg xmlns="http://www.w3.org/2000/svg" width="101" height="38" viewBox="0 0 101 38"><g><g><path d="M.03 18.617v-4.103h2.903l.428 2.878c.398.429.917.766 1.65 1.01.734.276 1.528.399 2.384.399 1.1 0 2.048-.245 2.842-.766.764-.52 1.406-1.255 1.864-2.174.428-.918.703-1.99.794-3.215l-4.064-1.899-3.117 1.47H3.697V9.83l5.073-2.45 4.065 1.93c-.092-1.226-.337-2.328-.795-3.247-.458-.918-1.07-1.653-1.894-2.174-.826-.52-1.773-.796-2.934-.796-.886 0-1.65.153-2.292.398A4.428 4.428 0 0 0 3.33 4.5l-.427 2.88H0V3.214A8.554 8.554 0 0 1 1.925 1.56 9.822 9.822 0 0 1 4.492.398C5.439.122 6.448 0 7.548 0c1.895 0 3.545.428 4.95 1.347 1.437.918 2.506 2.143 3.3 3.766.795 1.593 1.193 3.43 1.193 5.512v.643c0 2.082-.398 3.92-1.192 5.512a9.4 9.4 0 0 1-3.331 3.735c-1.375.858-3.025 1.317-4.89 1.317-1.65 0-3.117-.306-4.43-.888C1.863 20.362.824 19.597.03 18.617zm56.29 2.205c-1.1.673-2.383 1.01-3.91 1.01-1.56 0-2.874-.337-3.974-1.01a6.93 6.93 0 0 1-2.536-2.848c-.58-1.225-.886-2.634-.886-4.195v-.306c0-1.562.305-2.97.886-4.165.611-1.194 1.436-2.143 2.536-2.848 1.1-.673 2.415-1.04 3.942-1.04 1.528 0 2.842.367 3.943 1.04a7.075 7.075 0 0 1 2.506 2.848c.58 1.194.886 2.603.886 4.195v.307c0 1.592-.306 3-.886 4.195-.612 1.194-1.436 2.143-2.506 2.817zm-.55-7.012v-.307c0-.98-.122-1.837-.366-2.603-.244-.765-.611-1.347-1.13-1.776-.49-.428-1.131-.643-1.926-.643-.795 0-1.436.215-1.925.643-.49.43-.856 1.011-1.1 1.776-.245.735-.367 1.623-.367 2.603v.307c0 .98.122 1.867.367 2.602.244.766.61 1.348 1.13 1.776.49.429 1.162.643 1.925.643.765 0 1.406-.214 1.895-.643.49-.428.887-1.01 1.13-1.776.245-.735.368-1.623.368-2.602zm19.437 5.236l-2.629-3.277-2.566 3.277 1.405.183v2.328h-7.762v-2.389l1.956-.306 4.523-5.267-4.31-5.205-1.802-.276v-2.42h7.426v2.328l-1.314.184 2.505 3.246 2.445-3.246-1.436-.184V5.695h7.212v2.419l-1.711.276-4.095 5.052 4.553 5.42 1.864.306v2.389H73.74v-2.328zm25.761-.03v2.387h-5.012c-.091-.306-.213-.612-.305-.918-.061-.306-.153-.643-.183-.95-.52.644-1.131 1.195-1.834 1.593a5.24 5.24 0 0 1-2.445.582c-1.589 0-2.842-.398-3.728-1.225-.917-.827-1.345-1.96-1.345-3.4 0-.979.275-1.867.795-2.602.55-.765 1.345-1.317 2.384-1.745 1.07-.429 2.353-.643 3.85-.643h2.23V9.523L93.085 8.48l-3.179 1.47-.122.796H86.85V8.022l6.234-2.909 2.292 1.072V4.623h3.911V18.25c0 .184.03.368.062.582zm-5.623-1.869l-.03-2.572h-2.231c-1.008 0-1.773.214-2.292.704-.52.46-.764 1.01-.764 1.654 0 .582.183 1.041.55 1.347.367.337.886.49 1.558.49.673 0 1.284-.153 1.864-.46.612-.305 1.07-.704 1.345-1.163zM30.865 4.623L39.91 8.91v3.369h-2.383v6.338l2.261.429v2.388h-8.19v-2.388l1.956-.43V9.279l-2.689-1.286-2.903 1.377v9.248l1.955.429v2.388H21.79v-2.388l2.261-.43V12.28h-2.23V8.91zM.03 28.538h4.248v.95H1.192v5.787H.03zm10.726 1.96c.123.428.184.888.184 1.409v.122c0 .49-.061.95-.184 1.378a3.862 3.862 0 0 1-.52 1.072 2.59 2.59 0 0 1-.824.704 2.429 2.429 0 0 1-1.1.245c-.428 0-.795-.061-1.131-.215-.305-.153-.58-.336-.795-.581v3.246h-1.16v-9.34h1.069l.061.735c.214-.275.49-.49.825-.643.336-.153.703-.214 1.13-.214.429 0 .795.091 1.132.245.336.183.611.398.825.704.244.306.397.674.488 1.133zm-.916 1.5v-.091c0-.337-.03-.644-.092-.95-.092-.306-.183-.582-.336-.796a1.36 1.36 0 0 0-.55-.551c-.244-.153-.52-.215-.825-.215-.306 0-.55.062-.764.154a1.414 1.414 0 0 0-.55.398c-.122.122-.184.245-.275.398v3.184c0 .03 0 .062.03.092.153.245.367.46.611.613.245.153.581.245.948.245.305 0 .58-.062.794-.184.214-.153.398-.337.55-.551a2.32 2.32 0 0 0 .337-.796c.06-.307.091-.613.091-.95zm6.264-3.43h1.223l-2.69 7.778c-.06.153-.152.337-.244.521-.122.184-.244.367-.397.551-.153.184-.367.306-.58.429a2.036 2.036 0 0 1-.795.153c-.092 0-.184 0-.336-.03-.153-.031-.245-.031-.306-.062v-.95h.306c.275 0 .488-.03.672-.091a.997.997 0 0 0 .458-.337c.123-.153.245-.367.336-.643l.245-.674-2.384-6.675h1.253l1.681 5.053zm7.763-.03v6.737h-1.162v-5.788H19.62v5.788h-1.161v-6.737zm7.334 0v6.737H30.04v-5.788h-3.087v5.788h-1.13v-6.737zm7.028 5.94c.031.246.092.46.184.644v.091H37.22c-.03-.122-.092-.306-.122-.52-.03-.061-.03-.123-.03-.184l-.184.184a2.187 2.187 0 0 1-.764.49 2.423 2.423 0 0 1-.978.184c-.459 0-.856-.092-1.192-.276a1.78 1.78 0 0 1-.794-.704 1.93 1.93 0 0 1-.275-1.01c0-.368.06-.674.213-.95.153-.306.337-.52.611-.704.245-.184.581-.337.948-.429a5.195 5.195 0 0 1 1.253-.153h1.13v-.52c0-.276-.03-.521-.152-.705a1.102 1.102 0 0 0-.458-.46 2.04 2.04 0 0 0-.795-.152c-.275 0-.55.06-.764.153a1.385 1.385 0 0 0-.52.398.831.831 0 0 0-.183.52h-1.16c0-.214.06-.459.182-.704.122-.245.275-.46.52-.643a3.191 3.191 0 0 1 1.956-.643c.488 0 .916.092 1.283.245.367.184.672.429.886.765.214.337.337.766.337 1.256v3.154c0 .214 0 .46.06.674zm-1.375-.918c.061-.092.123-.153.153-.245v-1.378h-.947c-.336 0-.642.03-.886.092a3.118 3.118 0 0 0-.642.245 1.229 1.229 0 0 0-.398.398c-.091.153-.122.337-.122.551 0 .215.062.398.153.582a.968.968 0 0 0 .428.429c.183.091.428.153.703.153.336 0 .642-.062.917-.215s.488-.336.641-.612zm9.26-1.807l2.903 3.522H47.55l-2.322-2.879h-.856v2.879H43.21v-6.737h1.16v2.848h.765l2.23-2.848h1.407zm9.351-1.255c.153.398.214.857.214 1.347v.153c0 .49-.061.919-.214 1.348a2.777 2.777 0 0 1-.611 1.102c-.245.306-.58.551-.948.735a3.148 3.148 0 0 1-1.252.245c-.49 0-.917-.061-1.284-.245a2.944 2.944 0 0 1-.978-.735 3.528 3.528 0 0 1-.611-1.102c-.153-.398-.214-.858-.214-1.348v-.153c0-.49.061-.919.214-1.347.153-.429.336-.796.611-1.103.245-.336.581-.55.948-.734a2.787 2.787 0 0 1 1.253-.276c.488 0 .916.092 1.283.276.397.183.703.428.978.734.275.307.458.674.611 1.103zm-.947 1.347c0-.337-.03-.643-.122-.95a2.74 2.74 0 0 0-.367-.795c-.183-.245-.367-.429-.611-.551-.214-.154-.52-.215-.825-.215-.306 0-.581.092-.826.215a1.51 1.51 0 0 0-.61.55c-.184.246-.276.49-.368.797a3.24 3.24 0 0 0-.122.95v.152c0 .337.03.643.122.95.092.306.214.581.367.796.184.245.367.428.611.55.214.123.52.185.826.185.305 0 .58-.062.825-.184.244-.153.458-.337.61-.551.184-.245.276-.49.368-.796a3.24 3.24 0 0 0 .122-.95zm10.176-3.307v6.737h-1.13v-4.9l-2.201 4.9h-.794l-2.2-4.992v4.992h-1.131v-6.737h1.466l2.262 5.206 2.292-5.206zm7.365 0v6.737h-1.162v-5.788h-3.086v5.788H66.65v-6.737zm6.998 5.94c.03.246.092.46.184.644v.091h-1.192c-.03-.122-.092-.306-.123-.52-.03-.061-.03-.123-.03-.184l-.184.184a2.188 2.188 0 0 1-.763.49 2.423 2.423 0 0 1-.978.184c-.459 0-.856-.092-1.192-.276a1.782 1.782 0 0 1-.795-.704 1.93 1.93 0 0 1-.275-1.01c0-.368.061-.674.214-.95a1.71 1.71 0 0 1 .611-.704c.245-.184.58-.337.947-.429a5.196 5.196 0 0 1 1.253-.153h1.131v-.52c0-.276-.03-.521-.153-.705a1.105 1.105 0 0 0-.458-.46 2.042 2.042 0 0 0-.795-.152c-.305 0-.55.06-.764.153a1.383 1.383 0 0 0-.519.398.83.83 0 0 0-.183.52h-1.161c0-.214.06-.459.182-.704.123-.245.276-.46.52-.643a3.191 3.191 0 0 1 1.956-.643c.489 0 .917.092 1.284.245.366.184.672.429.886.765.213.337.336.766.336 1.256v3.154c0 .214.03.46.06.674zm-1.345-.918c.062-.092.123-.153.153-.245v-1.378h-.947c-.336 0-.642.03-.887.092a3.128 3.128 0 0 0-.641.245 1.227 1.227 0 0 0-.397.398c-.092.153-.123.337-.123.551 0 .215.061.398.153.582a.967.967 0 0 0 .428.429c.183.091.428.153.703.153.336 0 .642-.062.917-.215s.489-.336.641-.612zm7.427-5.022h1.16v6.737h-1.16v-2.879h-3.087v2.879h-1.13v-6.737h1.13v2.91h3.087zm7.364 0h1.13v6.737h-1.13v-4.9l-3.117 4.9h-1.13v-6.737h1.13v4.93zm4.4-1.225c-.335-.306-.488-.704-.488-1.194h.917c0 .245.06.46.213.643.153.184.398.276.734.276.336 0 .55-.092.703-.276a.962.962 0 0 0 .214-.643h.917c0 .306-.062.613-.214.857a1.695 1.695 0 0 1-.642.582c-.275.153-.611.215-.978.215-.58 0-1.039-.154-1.375-.46zm2.934 1.225H101v6.737h-1.162v-4.9l-3.117 4.9h-1.13v-6.737h1.13v4.93z"/></g></g></svg>