<svg width="239" height="65" viewBox="0 0 239 65" fill="none" xmlns="http://www.w3.org/2000/svg">
<g clip-path="url(#clip0_10069_4402)">
<path d="M227.091 44.1878H239V45.5502H0V44.1878H198.784V5.07308L191.11 10.2806V8.63141C195.281 5.75427 199.453 2.87714 203.633 0V44.1878H222.242V5.07308L214.567 10.2806V8.63141C218.739 5.75427 222.91 2.87714 227.091 0V44.1878Z" fill="#F57D02"/>
<path d="M171.011 20.7819H174.993L156.619 35.6785L156.8 36.1894H157.874L158.055 36.1267L175.824 21.732V36.1984H180.194V2.03125H171.002C169.35 2.03125 167.815 2.22844 166.407 2.60488C164.989 2.9903 163.698 3.57289 162.533 4.34372C161.35 5.13246 160.457 6.1184 159.861 7.30152C159.265 8.48464 158.976 9.85599 158.976 11.4156C158.976 12.4553 159.183 13.495 159.599 14.5437C160.005 15.5744 160.619 16.6141 161.432 17.6449C162.271 18.7025 163.49 19.4913 165.106 20.0111C166.696 20.522 168.664 20.7819 171.011 20.7819ZM175.833 19.5092H172.276C170.75 19.5092 169.44 19.3389 168.339 19.0073C167.246 18.6756 166.362 18.1737 165.675 17.5194C164.998 16.8561 164.483 16.0226 164.131 15.0097C163.788 13.988 163.608 12.7959 163.608 11.4156C163.608 8.68183 164.294 6.63826 165.666 5.30276C166.343 4.6395 167.228 4.13757 168.321 3.80593C169.422 3.46534 170.741 3.29504 172.276 3.29504H175.833V19.5092Z" fill="#37474F"/>
<path d="M152.781 3.304H138.253V18.1378H150.659V19.4106H138.253V34.9167H153.07V36.1894H133.883V2.03125H153.07V3.304H152.781Z" fill="#37474F"/>
<path d="M0 2.31807V36.1894H4.37008V3.304H17.4081V2.03125H0V2.31807Z" fill="#37474F"/>
<path d="M29.7861 8.26758C26.1022 17.5802 22.4093 26.8838 18.7435 36.1875H17.3711L31.1405 1.375H31.6732L45.4425 36.1964H40.8196L40.7474 36.0172L36.6843 25.7186H25.5966L26.0932 24.4548H36.1967L29.7861 8.27654V8.26758Z" fill="#37474F"/>
<path d="M116.151 20.5232H113.912V19.8151H114.887C118.038 19.8151 120.341 19.107 121.803 17.6998C123.266 16.2926 123.988 14.1504 123.988 11.2823C123.988 8.41409 123.266 6.28088 121.812 4.85576C120.359 3.4396 118.056 2.73152 114.887 2.73152H111.348V36.1906H107.492V2.02344H116.151C119.492 2.02344 122.318 2.79426 124.638 4.32694C126.968 5.86858 128.124 8.18105 128.124 11.2733C128.124 13.3169 127.302 15.3694 125.668 17.4309C124.024 19.4834 120.855 20.5142 116.151 20.5142" fill="#37474F"/>
<path d="M99.8608 3.304H85.333V18.1378H97.7389V19.4106H85.333V34.9167H100.15V36.1894H80.9629V2.03125H100.15V3.304H99.8608Z" fill="#37474F"/>
<path d="M61.3076 8.26758C56.161 21.2909 54.9511 24.3025 50.265 36.1875H48.8926L62.671 1.375H63.2037L76.973 36.1964H72.3501L72.2779 36.0172C66.9056 22.3844 67.321 23.4241 61.3166 8.27654" fill="#37474F"/>
<path d="M119.328 59.7899V58.9743H123.184V59.7899H119.328ZM169.16 58.9743H171.562C172.13 58.9743 172.591 58.804 172.943 58.4634C173.286 58.1228 173.458 57.6657 173.458 57.092C173.458 56.5184 173.286 56.0702 172.943 55.7207C172.6 55.3801 172.139 55.2098 171.562 55.2098H169.16V58.9743ZM168.212 63.1152V54.3314H171.562C172.383 54.3314 173.06 54.5913 173.593 55.1202C174.135 55.649 174.406 56.3033 174.406 57.092C174.406 57.8808 174.135 58.5351 173.593 59.0639C173.051 59.5927 172.374 59.8526 171.562 59.8526H169.16V63.1152H168.212ZM161.106 63.1152V55.2098H158.325V54.3314H164.835V55.2098H162.054V63.1152H161.106ZM148.122 63.1152V54.3314H149.07V58.2214H154V54.3314H154.948V63.1152H154V59.0998H149.07V63.1152H148.122ZM138.235 63.1152V54.3314H144.303V55.2098H139.183V58.0959H143.292V58.9743H139.183V62.2368H144.429V63.1152H138.235ZM126.895 63.1152V54.3314H127.843V62.2368H132.646V54.3314H133.594V62.2368H134.732V64.9974H133.784V63.1152H126.895ZM108.818 63.1152V54.3314H109.767V58.2214H114.696V54.3314H115.644V63.1152H114.696V59.0998H109.767V63.1152H108.818ZM99.058 51.4453H99.7532C99.7532 51.7321 99.8526 51.9652 100.042 52.1624C100.232 52.3506 100.476 52.4492 100.764 52.4492C101.053 52.4492 101.288 52.3506 101.487 52.1624C101.676 51.9741 101.776 51.7321 101.776 51.4453H102.471C102.471 51.9472 102.318 52.3595 102.001 52.6732C101.685 52.987 101.27 53.1483 100.774 53.1483C100.277 53.1483 99.8526 52.987 99.5365 52.6732C99.2205 52.3595 99.067 51.9562 99.067 51.4453H99.058ZM97.1619 63.1152V54.3314H98.11V61.4212L103.545 54.3314H104.367V63.1152H103.419V56.0254L97.9835 63.1152H97.1619ZM87.9703 59.7899H91.3833L89.6768 55.649L87.9703 59.7899ZM85.5685 63.1152L89.2344 54.3314H90.1192L93.785 63.1152H92.7738L91.7625 60.6683H87.5911L86.5798 63.1152H85.5685ZM76.6297 61.8604L77.2618 61.233C77.4424 61.4481 77.65 61.6363 77.9028 61.7976C78.4717 62.1741 79.1037 62.3623 79.7899 62.3623C80.4761 62.3623 81.045 62.192 81.4513 61.8604C81.8576 61.5287 82.0653 61.1254 82.0653 60.6683C82.0653 60.1753 81.8576 59.7541 81.4513 59.4224C81.045 59.0818 80.4852 58.9115 79.7899 58.9115H78.7787V58.0331H79.7899C80.3949 58.0331 80.8734 57.8897 81.2256 57.6119C81.5777 57.334 81.7492 56.9934 81.7492 56.5901C81.7492 56.1599 81.5777 55.8013 81.2256 55.5145C80.8734 55.2277 80.3949 55.0843 79.7899 55.0843C79.2211 55.0843 78.6793 55.2546 78.1557 55.5862C77.9119 55.7655 77.7132 55.9268 77.5778 56.0882L76.9458 55.4608C77.1444 55.2367 77.3882 55.0216 77.6771 54.8333C78.3362 54.4121 79.0405 54.2059 79.7899 54.2059C80.6748 54.2059 81.379 54.43 81.9118 54.8782C82.4354 55.3263 82.6973 55.8731 82.6973 56.5274C82.6973 57.1817 82.4445 57.6836 81.9388 58.069C81.7222 58.2572 81.4693 58.3827 81.1804 58.4723C81.5055 58.5709 81.8124 58.7233 82.0923 58.9115C82.7063 59.3686 83.0133 59.9602 83.0133 60.6683C83.0133 61.3764 82.7154 61.959 82.1104 62.4699C81.5055 62.9807 80.738 63.2407 79.7899 63.2407C78.9231 63.2407 78.1376 63.0076 77.4243 62.5505C77.1083 62.3444 76.8374 62.1113 76.6297 61.8604ZM65.9212 63.1152V54.3314H66.8693V61.4212L72.3048 54.3314H73.1265V63.1152H72.1784V56.0254L66.7429 63.1152H65.9212ZM55.3392 62.2368H60.3954V55.2098H56.856V56.9665C56.856 58.5709 56.6032 59.9244 56.0976 61.0358C55.8809 61.5198 55.6281 61.9231 55.3392 62.2368ZM53.8223 64.9974V62.2368H54.3279C54.6349 61.9231 54.8967 61.5377 55.1134 61.0537C55.6461 59.9154 55.908 58.553 55.908 56.9665V54.3314H61.3435V62.2368H62.418V64.9974H61.4699V63.1152H54.7703V64.9974H53.8223Z" fill="#37474F"/>
</g>
<defs>
<clipPath id="clip0_10069_4402">
<rect width="239" height="65" fill="white"/>
</clipPath>
</defs>
</svg>
