<svg xmlns="http://www.w3.org/2000/svg" width="403" height="161" viewBox="0 0 403 161" fill="none"><path fill-rule="evenodd" clip-rule="evenodd" d="M0.0498047 117.83V159.84H30.3498V156.4H4.08981V117.83H0.0498047Z" fill="#333333"></path><path fill-rule="evenodd" clip-rule="evenodd" d="M47.6699 121.4H61.4399C68.4699 121.4 71.2299 124.58 71.2299 128.88C71.2299 133.53 68.0099 136.59 62.2099 136.59H47.6699V121.4ZM47.6699 140.03H62.1699C69.1999 140.03 72.3999 142.9 72.3999 148.01C72.3999 153.24 69.0299 156.4 61.9999 156.4H47.6699V140.03ZM43.6299 117.96V159.84H61.8899C71.7199 159.84 76.4399 155.3 76.4399 148.19C76.4399 142.73 73.7599 139.19 69.1399 137.92C72.6599 136.48 74.6799 133.19 74.6799 128.66C74.6799 122.25 70.5399 117.96 61.4399 117.96H43.6299Z" fill="#333333"></path><path fill-rule="evenodd" clip-rule="evenodd" d="M127.79 128.35C124.52 121.49 118.15 117.37 108.97 117.37C96.2298 117.37 87.7998 126.21 87.7998 138.87C87.7998 151.81 96.1698 160.43 108.97 160.43C118.27 160.43 124.8 156.31 128.02 149.39L124.24 147.76C121.65 153.27 116.07 156.98 108.97 156.98C98.4798 156.98 91.8298 149.28 91.8298 138.87C91.8298 128.63 98.3698 120.82 108.97 120.82C116.13 120.82 121.42 124.53 124.02 129.98L127.79 128.35Z" fill="#333333"></path><path fill-rule="evenodd" clip-rule="evenodd" d="M185.359 138.94V142.38H197.279V144.32C197.279 151.16 190.499 156.98 181.739 156.98C171.849 156.98 164.899 150.08 164.899 138.99C164.899 128.23 171.799 120.82 181.859 120.82C188.919 120.82 194.169 124.1 196.769 129.76L200.499 128.18C197.279 121.16 190.609 117.37 181.859 117.37C169.539 117.37 160.859 126.03 160.859 138.99C160.859 152.36 169.309 160.43 181.689 160.43C188.919 160.43 194.569 157.6 197.679 152.82V159.91H201.289V138.94H185.359Z" fill="#333333"></path><path fill-rule="evenodd" clip-rule="evenodd" d="M219.64 121.4H232.65C240.18 121.4 244.37 125.37 244.37 131.37C244.37 137.43 240.01 141.28 232.65 141.28H219.64V121.4ZM215.6 117.96V159.97H219.64V144.72H232.99C233.33 144.72 233.67 144.78 234.01 144.72L244.53 159.97H249.53L238.48 144.11C244.81 142.51 248.41 137.77 248.41 131.37C248.41 123.38 242.9 117.96 232.82 117.96H215.6Z" fill="#333333"></path><path fill-rule="evenodd" clip-rule="evenodd" d="M281.16 117.37C268.28 117.37 259.77 126 259.77 138.9C259.77 152.02 268.34 160.43 281.16 160.43C294.04 160.43 302.55 151.8 302.55 138.9C302.55 125.83 293.98 117.37 281.16 117.37ZM281.16 120.82C291.74 120.82 298.52 128.42 298.52 138.9C298.52 149.38 291.86 156.98 281.16 156.98C270.52 156.98 263.8 149.43 263.8 138.9C263.8 128.36 270.41 120.82 281.16 120.82Z" fill="#333333"></path><path fill-rule="evenodd" clip-rule="evenodd" d="M316.26 117.83V140.39C316.26 153.44 322.94 160.43 334.75 160.43C346.5 160.43 353.18 153.21 353.18 140.39V117.83H349.14V140.39C349.14 150.85 343.91 156.98 334.75 156.98C325.36 156.98 320.3 150.74 320.3 140.39V117.83H316.26Z" fill="#333333"></path><path fill-rule="evenodd" clip-rule="evenodd" d="M373.27 121.4H385.41C393.6 121.4 398 125.36 398 131.93C398 138.49 393.54 142.45 385.41 142.45H373.27V121.4ZM369.24 117.96V159.97H373.27V145.9H385.64C396.23 145.9 402.04 140.47 402.04 131.93C402.04 123.44 396.35 117.96 385.64 117.96H369.24Z" fill="#333333"></path><path fill-rule="evenodd" clip-rule="evenodd" d="M121.56 27.96H179.16V85.5599H121.56V27.96Z" fill="#82C2D0"></path><path fill-rule="evenodd" clip-rule="evenodd" d="M187.319 27.96H244.919V85.5599H187.319V27.96Z" fill="#60B5C5"></path><path fill-rule="evenodd" clip-rule="evenodd" d="M253.08 28.2002H310.68V85.8002H253.08V28.2002Z" fill="#389AB5"></path><path fill-rule="evenodd" clip-rule="evenodd" d="M112.04 85.65V18.55H310.51V15.11H108.01V85.65H112.04ZM95.4199 85.65V3.44L310.51 3.45001V0H91.3799V85.65H95.4199ZM103.73 85.65V11H310.51V7.55005H99.6999V85.65H103.73Z" fill="#333333"></path><path fill-rule="evenodd" clip-rule="evenodd" d="M121.56 27.96V85.5599H179.16V27.96H121.56ZM122.76 29.16H177.96V84.36H122.76V29.16Z" fill="#6EABB8"></path><path fill-rule="evenodd" clip-rule="evenodd" d="M187.319 27.96V85.5599H244.919V27.96H187.319ZM188.519 29.16H243.719V84.36H188.519V29.16Z" fill="#407581"></path><path fill-rule="evenodd" clip-rule="evenodd" d="M253.08 28.2002V85.8002H310.68V28.2002H253.08ZM254.28 29.4002H309.48V84.6002H254.28V29.4002Z" fill="#166073"></path></svg>