<svg width="60" height="60" viewBox="0 0 60 60" fill="none" xmlns="http://www.w3.org/2000/svg">
<mask id="mask0_11616_36076" style="mask-type:alpha" maskUnits="userSpaceOnUse" x="0" y="0" width="60" height="60">
<path d="M0 30C0 13.4315 13.4315 0 30 0C46.5685 0 60 13.4315 60 30C60 46.5685 46.5685 60 30 60C13.4315 60 0 46.5685 0 30Z" fill="#0E1320"/>
</mask>
<g mask="url(#mask0_11616_36076)">
<path d="M5.56685 36.7598C5.8481 36.127 6.62153 35.5781 6.9731 35.3828L30.3228 36.0566L53.1172 35.3828C53.4688 35.5781 54.2422 36.127 54.5235 36.7598C54.8751 37.5508 53.2637 41.0371 57.5118 44.4941C61.7598 47.9512 65.2169 50.2656 62.8145 53.0488C60.4122 55.832 54.6407 60.5488 44.2696 60.5488C35.9727 60.5488 31.6997 60.3424 30.3228 60.1471C28.9458 60.3424 24.1177 60.5488 15.8208 60.5488C5.44969 60.5488 -0.321829 55.832 -2.72417 53.0488C-5.12651 50.2656 -1.66948 47.9512 2.57857 44.4941C6.82661 41.0371 5.21528 37.5508 5.56685 36.7598Z" fill="#2B354F"/>
<path d="M53.6837 36.4425C53.6837 39.1096 43.0697 41.2717 29.9766 41.2717C16.8836 41.2717 6.26953 39.1096 6.26953 36.4425C6.26953 33.7754 16.8836 31.6133 29.9766 31.6133C43.0697 31.6133 53.6837 33.7754 53.6837 36.4425Z" fill="#606981"/>
<path d="M46.6597 36.6115C46.6597 38.2528 39.1755 39.5833 29.9432 39.5833C20.7109 39.5833 13.2266 38.2528 13.2266 36.6115C13.2266 34.9702 20.7109 33.6396 29.9432 33.6396C39.1755 33.6396 46.6597 34.9702 46.6597 36.6115Z" fill="#0E1320"/>
<path d="M46.6597 36.4757C46.6597 38.117 39.1755 39.4476 29.9432 39.4476C20.7109 39.4476 13.2266 38.117 13.2266 36.4757C13.2266 34.8344 20.7109 33.5039 29.9432 33.5039C39.1755 33.5039 46.6597 34.8344 46.6597 36.4757Z" fill="#0E1320"/>
<mask id="mask1_11616_36076" style="mask-type:alpha" maskUnits="userSpaceOnUse" x="18" y="13" width="23" height="25">
<path d="M18.9004 24.8926C18.9004 18.7937 23.8445 13.8496 29.9434 13.8496C36.0423 13.8496 40.9865 18.7937 40.9865 24.8926V37.6242H18.9004V24.8926Z" fill="white"/>
</mask>
<g mask="url(#mask1_11616_36076)">
<path d="M46.6597 34.6525C46.6597 36.2938 39.1754 37.6243 29.9431 37.6243C20.7109 37.6243 13.2266 36.2938 13.2266 34.6525C13.2266 33.0112 20.7109 31.6807 29.9431 31.6807C39.1754 31.6807 46.6597 33.0112 46.6597 34.6525Z" fill="white"/>
<path d="M18.0898 9.66211H42.0671V33.6394H18.0898V9.66211Z" fill="white"/>
</g>
<path d="M36.7306 19.7931C36.7306 20.278 35.7932 20.6711 34.6368 20.6711C33.4804 20.6711 32.543 20.278 32.543 19.7931C32.543 19.3082 33.4804 18.915 34.6368 18.915C35.7932 18.915 36.7306 19.3082 36.7306 19.7931Z" fill="#0E1320"/>
<path d="M27.5449 19.7931C27.5449 20.278 26.6075 20.6711 25.4512 20.6711C24.2948 20.6711 23.3574 20.278 23.3574 19.7931C23.3574 19.3082 24.2948 18.915 25.4512 18.915C26.6075 18.915 27.5449 19.3082 27.5449 19.7931Z" fill="#0E1320"/>
<path d="M32.6787 24.5547C32.6787 25.3567 31.4692 26.0068 29.9771 26.0068C28.485 26.0068 27.2754 25.3567 27.2754 24.5547C27.2754 23.7527 28.485 23.1025 29.9771 23.1025C31.4692 23.1025 32.6787 23.7527 32.6787 24.5547Z" fill="#0E1320"/>
<path fill-rule="evenodd" clip-rule="evenodd" d="M21.8388 21.5296C21.9245 21.3554 22.1351 21.2835 22.3094 21.3691L25.5396 22.9564C25.7139 23.042 25.7858 23.2527 25.7001 23.4269C25.6145 23.6012 25.4038 23.673 25.2296 23.5874L21.9993 22.0002C21.8251 21.9146 21.7532 21.7039 21.8388 21.5296Z" fill="black"/>
<path fill-rule="evenodd" clip-rule="evenodd" d="M21.8388 27.7492C21.9245 27.9235 22.1351 27.9953 22.3094 27.9097L25.5396 26.3225C25.7139 26.2368 25.7858 26.0262 25.7001 25.8519C25.6145 25.6776 25.4038 25.6058 25.2296 25.6914L21.9993 27.2786C21.8251 27.3643 21.7532 27.5749 21.8388 27.7492Z" fill="black"/>
<path fill-rule="evenodd" clip-rule="evenodd" d="M20.3047 24.623C20.3047 24.4289 20.4621 24.2715 20.6562 24.2715H25.0611C25.2553 24.2715 25.4127 24.4289 25.4127 24.623C25.4127 24.8172 25.2553 24.9746 25.0611 24.9746H20.6562C20.4621 24.9746 20.3047 24.8172 20.3047 24.623Z" fill="black"/>
<path fill-rule="evenodd" clip-rule="evenodd" d="M38.1268 21.5274C38.04 21.3538 37.8288 21.2834 37.6552 21.3702L34.4132 22.9912C34.2395 23.078 34.1691 23.2892 34.2559 23.4629C34.3428 23.6365 34.554 23.7069 34.7276 23.6201L37.9696 21.9991C38.1433 21.9123 38.2137 21.7011 38.1268 21.5274Z" fill="black"/>
<path fill-rule="evenodd" clip-rule="evenodd" d="M38.1268 27.7851C38.04 27.9587 37.8288 28.0291 37.6552 27.9423L34.4132 26.3213C34.2395 26.2345 34.1691 26.0233 34.2559 25.8496C34.3428 25.676 34.554 25.6056 34.7276 25.6924L37.9696 27.3134C38.1433 27.4002 38.2137 27.6114 38.1268 27.7851Z" fill="black"/>
<path fill-rule="evenodd" clip-rule="evenodd" d="M39.6499 24.6563C39.6499 24.4621 39.4925 24.3047 39.2983 24.3047H34.9081C34.714 24.3047 34.5566 24.4621 34.5566 24.6563C34.5566 24.8504 34.714 25.0078 34.9081 25.0078H39.2983C39.4925 25.0078 39.6499 24.8504 39.6499 24.6563Z" fill="black"/>
</g>
</svg>
