<svg width="158" height="42" viewBox="0 0 158 42" fill="none" xmlns="http://www.w3.org/2000/svg">
<path d="M26.902 39.0227C26.8656 39.0302 26.8303 39.0345 26.795 39.0409C26.2784 39.175 25.7575 39.2919 25.2302 39.3853C21.8439 39.9946 18.3594 39.7423 15.0955 38.6515C11.7721 37.5311 8.8098 35.536 6.51815 32.8748C1.54974 27.0959 0.561408 19.1834 3.25579 12.379C4.26321 9.07363 6.13285 6.09824 8.67131 3.76056L8.33973 3.37329C8.11297 3.55566 7.92899 3.708 7.75999 3.85389C-1.38423 11.7235 -2.62607 25.3302 4.98966 34.1825C7.40692 36.9905 10.5317 39.0959 14.0376 40.2789C17.4823 41.4302 21.16 41.6965 24.7339 41.0534C28.671 40.3417 32.3463 38.5856 35.3777 35.9675C35.5435 35.8248 35.7221 35.665 35.9382 35.4676L35.6066 35.0793C33.078 37.1006 30.0858 38.4561 26.902 39.0227Z" fill="#49BB81"/>
<path d="M39.2519 13.2082C36.4494 3.9032 26.6025 -1.41653 17.2582 1.3254C13.4946 2.41995 10.2068 4.75094 7.92253 7.94423C10.101 5.23854 13.0549 3.26859 16.3854 2.30052C25.4451 -0.357741 34.9905 4.79893 37.7073 13.8186C38.3714 16.0124 38.5811 18.3193 38.3236 20.5974C38.0661 22.8755 37.3468 25.0768 36.2099 27.0659C37.8378 23.8788 38.3557 20.237 37.681 16.7205C37.0062 13.204 35.1778 10.0151 32.4867 7.66152C29.7957 5.30793 26.3968 3.92505 22.8313 3.7331C19.2659 3.54114 15.7389 4.55117 12.8121 6.6023C9.8853 8.65344 7.72694 11.6277 6.68076 15.0516C5.63458 18.4754 5.76073 22.1518 7.03913 25.4954C8.31753 28.839 10.6747 31.6574 13.7351 33.5019C16.7956 35.3464 20.3835 36.1109 23.9273 35.6736C25.103 35.5715 26.2657 35.3526 27.3983 35.0202C36.7479 32.273 42.0521 22.5078 39.2519 13.2082ZM14.3756 28.3564H9.99012L21.8854 6.05405L24.0771 10.1627L17.2818 22.9025H17.2903L14.3756 28.3564ZM29.3888 28.3564L27.3287 24.4945H20.804L23.5369 19.3721L26.2602 14.2637L28.4519 18.3734L33.7743 28.3499L29.3888 28.3564Z" fill="#49BB81"/>
<path d="M58.5479 22.9981H56.0386V9.19672H64.8014V11.3476H58.5479V22.9981Z" fill="#566072"/>
<path d="M80.5875 22.9981C80.4016 22.4538 80.2091 21.916 80.0099 21.385C79.8108 20.8539 79.6182 20.3095 79.4324 19.7519H73.6171C73.4312 20.3095 73.2387 20.8605 73.0395 21.4049C72.8536 21.936 72.6678 22.467 72.4819 22.9981H69.873C70.3908 21.5244 70.882 20.1635 71.3467 18.9155C71.8114 17.6674 72.2628 16.4858 72.7009 15.3705C73.1524 14.2552 73.5971 13.1931 74.0353 12.184C74.4734 11.175 74.9248 10.1792 75.3895 9.19672H77.7595C78.2242 10.1792 78.6756 11.175 79.1137 12.184C79.5519 13.1931 79.99 14.2552 80.4281 15.3705C80.8796 16.4858 81.3376 17.6674 81.8023 18.9155C82.2803 20.1635 82.7782 21.5244 83.296 22.9981H80.5875ZM76.5247 11.8654C76.2193 12.5691 75.8675 13.4254 75.4692 14.4345C75.0842 15.4435 74.6792 16.5389 74.2544 17.7205H78.7951C78.3702 16.5389 77.9586 15.4369 77.5603 14.4146C77.162 13.3922 76.8168 12.5425 76.5247 11.8654Z" fill="#566072"/>
<path d="M94.9185 9.05731C96.9233 9.05731 98.4568 9.42243 99.5189 10.1527C100.594 10.8829 101.132 12.0247 101.132 13.5781C101.132 14.388 100.986 15.0851 100.694 15.6692C100.415 16.2401 100.004 16.7115 99.4592 17.0832C98.9148 17.4417 98.251 17.7072 97.4677 17.8798C96.6843 18.0525 95.7881 18.1388 94.7791 18.1388H93.5244V22.9981H91.0151V9.39587C91.5992 9.26311 92.2432 9.17681 92.9468 9.13697C93.6638 9.08387 94.321 9.05731 94.9185 9.05731ZM95.0977 11.2281C94.4604 11.2281 93.936 11.248 93.5244 11.2878V15.9879H94.7392C95.9474 15.9879 96.8768 15.8219 97.5274 15.49C98.178 15.1448 98.5033 14.5009 98.5033 13.5582C98.5033 13.1068 98.417 12.7284 98.2444 12.423C98.0718 12.1177 97.8328 11.8787 97.5274 11.7061C97.222 11.5335 96.8569 11.414 96.4321 11.3476C96.0205 11.2679 95.5757 11.2281 95.0977 11.2281Z" fill="#566072"/>
<path d="M117.664 22.9981C117.479 22.4538 117.286 21.916 117.087 21.385C116.888 20.8539 116.695 20.3095 116.509 19.7519H110.694C110.508 20.3095 110.316 20.8605 110.116 21.4049C109.931 21.936 109.745 22.467 109.559 22.9981H106.95C107.468 21.5244 107.959 20.1635 108.424 18.9155C108.888 17.6674 109.34 16.4858 109.778 15.3705C110.229 14.2552 110.674 13.1931 111.112 12.184C111.55 11.175 112.002 10.1792 112.466 9.19672H114.836C115.301 10.1792 115.753 11.175 116.191 12.184C116.629 13.1931 117.067 14.2552 117.505 15.3705C117.956 16.4858 118.415 17.6674 118.879 18.9155C119.357 20.1635 119.855 21.5244 120.373 22.9981H117.664ZM113.602 11.8654C113.296 12.5691 112.944 13.4254 112.546 14.4345C112.161 15.4435 111.756 16.5389 111.331 17.7205H115.872C115.447 16.5389 115.036 15.4369 114.637 14.4146C114.239 13.3922 113.894 12.5425 113.602 11.8654Z" fill="#566072"/>
<path d="M136.596 9.19672H139.105V22.9981H136.596V16.8841H130.601V22.9981H128.092V9.19672H130.601V14.7133H136.596V9.19672Z" fill="#566072"/>
<path d="M158 9.19672V11.3675H153.758V22.9981H151.229V11.3675H146.987V9.19672H158Z" fill="#566072"/>
<path d="M58.714 35.4552C58.639 35.2355 58.5613 35.0184 58.4809 34.804C58.4005 34.5896 58.3228 34.3698 58.2477 34.1447H55.9C55.8249 34.3698 55.7472 34.5922 55.6668 34.812C55.5918 35.0264 55.5167 35.2408 55.4417 35.4552H54.3884C54.5975 34.8602 54.7958 34.3108 54.9834 33.807C55.171 33.3031 55.3532 32.8261 55.5301 32.3758C55.7124 31.9256 55.8919 31.4968 56.0688 31.0894C56.2457 30.682 56.428 30.28 56.6156 29.8834H57.5723C57.7599 30.28 57.9422 30.682 58.1191 31.0894C58.296 31.4968 58.4728 31.9256 58.6497 32.3758C58.832 32.8261 59.0169 33.3031 59.2045 33.807C59.3975 34.3108 59.5985 34.8602 59.8075 35.4552H58.714ZM57.0738 30.9608C56.9506 31.2448 56.8085 31.5906 56.6477 31.9979C56.4923 32.4053 56.3288 32.8475 56.1573 33.3246H57.9904C57.8189 32.8475 57.6527 32.4026 57.4919 31.9899C57.3311 31.5772 57.1918 31.2341 57.0738 30.9608Z" fill="#B8BEC9"/>
<path d="M66.2123 35.5195C65.9175 35.5195 65.62 35.5088 65.3198 35.4874C65.0196 35.4713 64.757 35.4338 64.5319 35.3748V29.9638C64.6498 29.9423 64.7758 29.9236 64.9098 29.9075C65.0438 29.8861 65.1804 29.87 65.3198 29.8593C65.4592 29.8485 65.5959 29.8405 65.7299 29.8351C65.8692 29.8298 66.0005 29.8271 66.1238 29.8271C66.4615 29.8271 66.7751 29.8539 67.0645 29.9075C67.354 29.9557 67.6032 30.0388 67.8123 30.1567C68.0267 30.2747 68.1928 30.4301 68.3108 30.6231C68.4287 30.816 68.4876 31.0546 68.4876 31.3386C68.4876 31.6013 68.4233 31.8264 68.2947 32.014C68.1714 32.2016 67.9972 32.3517 67.7721 32.4643C68.1098 32.5768 68.359 32.743 68.5198 32.9628C68.6806 33.1825 68.761 33.4613 68.761 33.7989C68.761 34.3725 68.552 34.804 68.1339 35.0934C67.7158 35.3775 67.0753 35.5195 66.2123 35.5195ZM65.5289 32.9467V34.6432C65.6414 34.6539 65.762 34.6619 65.8907 34.6673C66.0193 34.6726 66.1372 34.6753 66.2444 34.6753C66.4535 34.6753 66.6464 34.6619 66.8233 34.6351C67.0056 34.6083 67.161 34.5628 67.2897 34.4984C67.4237 34.4288 67.5282 34.3376 67.6032 34.2251C67.6836 34.1125 67.7238 33.9678 67.7238 33.7909C67.7238 33.4747 67.6086 33.2549 67.3781 33.1316C67.1476 33.0083 66.8287 32.9467 66.4213 32.9467H65.5289ZM65.5289 32.1507H66.2444C66.6304 32.1507 66.9332 32.0971 67.153 31.9899C67.3727 31.8773 67.4826 31.679 67.4826 31.3949C67.4826 31.1269 67.3674 30.9366 67.1369 30.8241C66.9118 30.7115 66.617 30.6552 66.2525 30.6552C66.097 30.6552 65.9577 30.6579 65.8344 30.6633C65.7165 30.6686 65.6146 30.6767 65.5289 30.6874V32.1507Z" fill="#B8BEC9"/>
<path d="M77.7196 29.8834V30.7598H76.007V35.4552H74.9859V30.7598H73.2734V29.8834H77.7196Z" fill="#B8BEC9"/>
<path d="M83.1442 32.6653C83.1442 32.9708 83.1817 33.2495 83.2568 33.5015C83.3318 33.748 83.439 33.9597 83.5784 34.1366C83.7231 34.3082 83.8973 34.4422 84.101 34.5386C84.3047 34.6351 84.5352 34.6834 84.7924 34.6834C85.0444 34.6834 85.2722 34.6351 85.4759 34.5386C85.6796 34.4422 85.8511 34.3082 85.9904 34.1366C86.1352 33.9597 86.245 33.748 86.3201 33.5015C86.3951 33.2495 86.4326 32.9708 86.4326 32.6653C86.4326 32.3598 86.3951 32.0837 86.3201 31.8371C86.245 31.5852 86.1352 31.3735 85.9904 31.202C85.8511 31.0251 85.6796 30.8884 85.4759 30.7919C85.2722 30.6954 85.0444 30.6472 84.7924 30.6472C84.5352 30.6472 84.3047 30.6954 84.101 30.7919C83.8973 30.8884 83.7231 31.0251 83.5784 31.202C83.439 31.3788 83.3318 31.5906 83.2568 31.8371C83.1817 32.0837 83.1442 32.3598 83.1442 32.6653ZM87.494 32.6653C87.494 33.1423 87.4216 33.5631 87.2769 33.9276C87.1375 34.2921 86.9445 34.5976 86.698 34.8442C86.4568 35.0854 86.1727 35.2676 85.8457 35.3909C85.5187 35.5142 85.1703 35.5758 84.8005 35.5758C84.4306 35.5758 84.0796 35.5142 83.7472 35.3909C83.4203 35.2676 83.1335 35.0854 82.8869 34.8442C82.6457 34.5976 82.4528 34.2921 82.308 33.9276C82.1633 33.5631 82.0909 33.1423 82.0909 32.6653C82.0909 32.1882 82.1633 31.7701 82.308 31.411C82.4528 31.0465 82.6484 30.741 82.895 30.4944C83.1469 30.2479 83.4363 30.0629 83.7633 29.9397C84.0903 29.8164 84.436 29.7547 84.8005 29.7547C85.165 29.7547 85.5107 29.8164 85.8377 29.9397C86.1646 30.0629 86.4487 30.2479 86.6899 30.4944C86.9365 30.741 87.1321 31.0465 87.2769 31.411C87.4216 31.7701 87.494 32.1882 87.494 32.6653Z" fill="#B8BEC9"/>
<path d="M94.591 30.7517C94.5749 31.1162 94.5561 31.4887 94.5347 31.8693C94.5133 32.2445 94.4731 32.609 94.4141 32.9628C94.3605 33.3112 94.2801 33.6408 94.1729 33.9517C94.0657 34.2626 93.9183 34.536 93.7307 34.7718C93.5431 35.0023 93.3072 35.1872 93.0232 35.3266C92.7444 35.4659 92.4014 35.541 91.994 35.5517L91.8814 34.6673C92.0744 34.6458 92.2433 34.6083 92.388 34.5547C92.5327 34.5011 92.6587 34.4314 92.7659 34.3457C92.8731 34.2546 92.9669 34.1447 93.0473 34.016C93.1277 33.882 93.1974 33.7266 93.2563 33.5497C93.401 33.1316 93.4975 32.609 93.5458 31.9819C93.594 31.3547 93.6181 30.6552 93.6181 29.8834H97.0995V35.4552H96.0784V30.7517H94.591Z" fill="#B8BEC9"/>
<path d="M103.284 32.6653C103.284 32.9708 103.321 33.2495 103.396 33.5015C103.472 33.748 103.579 33.9597 103.718 34.1366C103.863 34.3082 104.037 34.4422 104.241 34.5386C104.444 34.6351 104.675 34.6834 104.932 34.6834C105.184 34.6834 105.412 34.6351 105.616 34.5386C105.819 34.4422 105.991 34.3082 106.13 34.1366C106.275 33.9597 106.385 33.748 106.46 33.5015C106.535 33.2495 106.572 32.9708 106.572 32.6653C106.572 32.3598 106.535 32.0837 106.46 31.8371C106.385 31.5852 106.275 31.3735 106.13 31.202C105.991 31.0251 105.819 30.8884 105.616 30.7919C105.412 30.6954 105.184 30.6472 104.932 30.6472C104.675 30.6472 104.444 30.6954 104.241 30.7919C104.037 30.8884 103.863 31.0251 103.718 31.202C103.579 31.3788 103.472 31.5906 103.396 31.8371C103.321 32.0837 103.284 32.3598 103.284 32.6653ZM107.634 32.6653C107.634 33.1423 107.561 33.5631 107.417 33.9276C107.277 34.2921 107.084 34.5976 106.838 34.8442C106.596 35.0854 106.312 35.2676 105.985 35.3909C105.658 35.5142 105.31 35.5758 104.94 35.5758C104.57 35.5758 104.219 35.5142 103.887 35.3909C103.56 35.2676 103.273 35.0854 103.027 34.8442C102.785 34.5976 102.592 34.2921 102.448 33.9276C102.303 33.5631 102.231 33.1423 102.231 32.6653C102.231 32.1882 102.303 31.7701 102.448 31.411C102.592 31.0465 102.788 30.741 103.035 30.4944C103.287 30.2479 103.576 30.0629 103.903 29.9397C104.23 29.8164 104.576 29.7547 104.94 29.7547C105.305 29.7547 105.65 29.8164 105.977 29.9397C106.304 30.0629 106.588 30.2479 106.83 30.4944C107.076 30.741 107.272 31.0465 107.417 31.411C107.561 31.7701 107.634 32.1882 107.634 32.6653Z" fill="#B8BEC9"/>
<path d="M113.979 29.8834C114.097 30.0871 114.228 30.3363 114.373 30.6311C114.518 30.9259 114.665 31.2368 114.815 31.5638C114.965 31.8854 115.113 32.215 115.258 32.5527C115.408 32.885 115.544 33.1932 115.668 33.4773C115.791 33.1932 115.925 32.885 116.07 32.5527C116.214 32.215 116.362 31.8854 116.512 31.5638C116.662 31.2368 116.809 30.9259 116.954 30.6311C117.099 30.3363 117.23 30.0871 117.348 29.8834H118.265C118.313 30.2907 118.358 30.7249 118.401 31.1859C118.444 31.6415 118.482 32.1105 118.514 32.5929C118.551 33.07 118.584 33.5524 118.61 34.0401C118.643 34.5226 118.669 34.9943 118.691 35.4552H117.694C117.672 34.8066 117.646 34.1393 117.613 33.4532C117.587 32.7671 117.544 32.1025 117.485 31.4592C117.426 31.5825 117.356 31.7299 117.276 31.9015C117.195 32.073 117.11 32.2606 117.018 32.4643C116.927 32.6626 116.833 32.869 116.737 33.0834C116.646 33.2978 116.555 33.5068 116.464 33.7105C116.378 33.9088 116.297 34.0964 116.222 34.2733C116.147 34.4448 116.083 34.5922 116.029 34.7155H115.274C115.22 34.5922 115.156 34.4422 115.081 34.2653C115.006 34.0884 114.923 33.9008 114.831 33.7025C114.746 33.4988 114.655 33.2897 114.558 33.0753C114.467 32.8609 114.376 32.6546 114.285 32.4562C114.194 32.2579 114.108 32.073 114.027 31.9015C113.947 31.7246 113.877 31.5772 113.818 31.4592C113.759 32.1025 113.714 32.7671 113.682 33.4532C113.655 34.1393 113.631 34.8066 113.609 35.4552H112.612C112.634 34.9943 112.658 34.5172 112.685 34.0241C112.717 33.5309 112.749 33.0432 112.781 32.5608C112.819 32.073 112.859 31.6013 112.902 31.1457C112.945 30.6901 112.99 30.2693 113.039 29.8834H113.979Z" fill="#B8BEC9"/>
<path d="M124.88 30.7437V31.9175H125.427C125.829 31.9175 126.188 31.9497 126.504 32.014C126.82 32.0783 127.088 32.1829 127.308 32.3276C127.528 32.467 127.694 32.6519 127.807 32.8824C127.925 33.1075 127.984 33.3835 127.984 33.7105C127.984 34.3162 127.764 34.7691 127.324 35.0693C126.89 35.3641 126.268 35.5115 125.459 35.5115C125.234 35.5115 124.979 35.4981 124.695 35.4713C124.411 35.4499 124.143 35.4097 123.891 35.3507V29.8834H127.461V30.7437H124.88ZM125.234 34.6351C125.293 34.6351 125.36 34.6351 125.435 34.6351C125.51 34.6351 125.593 34.6324 125.684 34.6271C125.85 34.6217 126.008 34.603 126.158 34.5708C126.314 34.5386 126.448 34.4877 126.56 34.418C126.678 34.3484 126.769 34.2572 126.834 34.1447C126.903 34.0321 126.938 33.8901 126.938 33.7185C126.938 33.5256 126.903 33.3675 126.834 33.2442C126.764 33.1209 126.662 33.0244 126.528 32.9547C126.394 32.8797 126.231 32.8288 126.038 32.802C125.85 32.7698 125.636 32.7537 125.395 32.7537H124.88V34.619C124.928 34.6244 124.979 34.6298 125.033 34.6351C125.092 34.6351 125.159 34.6351 125.234 34.6351Z" fill="#B8BEC9"/>
<path d="M136.666 35.4552C136.591 35.2355 136.513 35.0184 136.433 34.804C136.353 34.5896 136.275 34.3698 136.2 34.1447H133.852C133.777 34.3698 133.699 34.5922 133.619 34.812C133.544 35.0264 133.469 35.2408 133.394 35.4552H132.341C132.55 34.8602 132.748 34.3108 132.936 33.807C133.123 33.3031 133.305 32.8261 133.482 32.3758C133.664 31.9256 133.844 31.4968 134.021 31.0894C134.198 30.682 134.38 30.28 134.568 29.8834H135.524C135.712 30.28 135.894 30.682 136.071 31.0894C136.248 31.4968 136.425 31.9256 136.602 32.3758C136.784 32.8261 136.969 33.3031 137.157 33.807C137.35 34.3108 137.551 34.8602 137.76 35.4552H136.666ZM135.026 30.9608C134.903 31.2448 134.761 31.5906 134.6 31.9979C134.444 32.4053 134.281 32.8475 134.109 33.3246H135.943C135.771 32.8475 135.605 32.4026 135.444 31.9899C135.283 31.5772 135.144 31.2341 135.026 30.9608Z" fill="#B8BEC9"/>
<path d="M144.06 29.8271C144.869 29.8271 145.488 29.9745 145.917 30.2693C146.351 30.5641 146.568 31.0251 146.568 31.6522C146.568 31.9792 146.509 32.2606 146.392 32.4964C146.279 32.7269 146.113 32.9172 145.893 33.0673C145.673 33.212 145.405 33.3192 145.089 33.3889C144.773 33.4586 144.411 33.4934 144.004 33.4934H143.497V35.4552H142.484V29.9638C142.72 29.9102 142.98 29.8753 143.264 29.8593C143.553 29.8378 143.819 29.8271 144.06 29.8271ZM144.132 30.7035C143.875 30.7035 143.663 30.7115 143.497 30.7276V32.6251H143.987C144.475 32.6251 144.85 32.5581 145.113 32.4241C145.376 32.2847 145.507 32.0247 145.507 31.6442C145.507 31.4619 145.472 31.3092 145.403 31.1859C145.333 31.0626 145.236 30.9661 145.113 30.8964C144.99 30.8268 144.842 30.7785 144.671 30.7517C144.505 30.7196 144.325 30.7035 144.132 30.7035Z" fill="#B8BEC9"/>
<path d="M150.44 34.5949H151.132C151.373 34.2626 151.558 33.9142 151.687 33.5497C151.821 33.1798 151.917 32.7993 151.976 32.408C152.04 32.0113 152.078 31.604 152.089 31.1859C152.099 30.7624 152.105 30.3283 152.105 29.8834H155.522V34.5949H156.35V36.9427H155.377V35.4552H151.413V36.9427H150.44V34.5949ZM153.077 30.7517C153.061 31.0733 153.043 31.403 153.021 31.7407C153 32.0783 152.96 32.4134 152.901 32.7457C152.847 33.0726 152.769 33.3943 152.667 33.7105C152.566 34.0214 152.426 34.3162 152.249 34.5949H154.525V30.7517H153.077Z" fill="#B8BEC9"/>
</svg>
