<svg width="185" height="43" viewBox="0 0 185 43" fill="none" xmlns="http://www.w3.org/2000/svg">
<path d="M20.7 13.7618C25 13.7618 28.5 17.2618 28.5 21.5618C28.5 25.8618 25 29.3618 20.7 29.3618C16.4 29.3618 12.9 25.8618 12.9 21.5618C12.9 17.2618 16.4 13.7618 20.7 13.7618ZM20.7 0.861816C9.3 0.861816 0 10.1618 0 21.5618C0 32.9618 9.3 42.2618 20.7 42.2618C32.1 42.2618 41.4 32.9618 41.4 21.5618C41.4 10.1618 32.1 0.861816 20.7 0.861816Z" fill="#292929"/>
<path d="M14.6003 14.9615L13.8003 17.7615L14.8003 17.9615L16.4003 16.2615L14.8003 14.5615L14.6003 14.9615Z" fill="#8A6D44"/>
<path d="M13.9003 26.1616L15.3003 28.6616L16.2003 28.1616L16.1003 25.8616L13.8003 25.6616L13.9003 26.1616Z" fill="#8A6D44"/>
<path d="M26.7 36.3619C18.6 36.3619 12 29.7619 12 21.6619C12 13.5619 18.6 6.96191 26.7 6.96191C34.8 6.96191 41.4 13.5619 41.4 21.6619C41.4 29.7619 34.8 36.3619 26.7 36.3619ZM26.7 8.26191C19.3 8.26191 13.3 14.2619 13.3 21.6619C13.3 29.0619 19.3 35.0619 26.7 35.0619C34.1 35.0619 40.1 29.0619 40.1 21.6619C40.2 14.2619 34.1 8.26191 26.7 8.26191Z" fill="white"/>
<path d="M22.2999 34.3617C22.8999 34.5617 23.3999 34.7617 23.9999 34.8617L23.1999 32.4617C22.6999 32.4617 22.2999 32.3617 21.8999 32.2617L22.2999 34.3617Z" fill="#DCD2A2"/>
<path d="M21.9001 32.2615C22.3001 32.3615 22.8001 32.3615 23.2001 32.4615L19.6001 22.0615L21.9001 32.2615Z" fill="#C5AE80"/>
<path d="M21.9001 32.2615C22.3001 32.3615 22.8001 32.3615 23.2001 32.4615L19.6001 22.0615L21.9001 32.2615Z" fill="#C5AE80"/>
<path d="M15.9002 28.8618L15.7002 29.2618C15.9002 29.6618 16.2002 29.9618 16.5002 30.3618L16.7002 29.7618C16.4002 29.4618 16.1002 29.1618 15.9002 28.8618Z" fill="#C5AE80"/>
<path d="M15.9004 28.8616C16.2004 29.1616 16.4004 29.4616 16.7004 29.6616L20.7004 20.6616L15.9004 28.8616Z" fill="#C5AE80"/>
<path opacity="0.51" d="M15.9004 28.8616C16.2004 29.1616 16.4004 29.4616 16.7004 29.6616L20.7004 20.6616L15.9004 28.8616Z" fill="#E3BE88"/>
<path d="M16.4004 30.3616C16.7004 30.6616 17.0004 30.9616 17.3004 31.2616L17.5004 30.3616C17.2004 30.1616 16.9004 29.8616 16.6004 29.6616L16.4004 30.3616Z" fill="#C5AE80"/>
<path d="M16.7002 29.6616C17.0002 29.8616 17.3002 30.1616 17.6002 30.3616L20.1002 21.6616L16.7002 29.6616Z" fill="#C5AE80"/>
<path d="M16.7002 29.6616C17.0002 29.8616 17.3002 30.1616 17.6002 30.3616L20.1002 21.6616L16.7002 29.6616Z" fill="#AC9777"/>
<path d="M17.3003 31.2618C17.6003 31.5618 18.0003 31.8618 18.3003 32.1618L18.5003 30.9618C18.2003 30.7618 17.8003 30.5618 17.5003 30.3618L17.3003 31.2618Z" fill="#DCD2A2"/>
<path d="M17.5005 30.3616C17.8005 30.5616 18.1005 30.7616 18.5005 30.9616L19.9005 21.6616L17.5005 30.3616Z" fill="#C5AE80"/>
<path opacity="0.51" d="M17.5005 30.3616C17.8005 30.5616 18.1005 30.7616 18.5005 30.9616L19.9005 21.6616L17.5005 30.3616Z" fill="#E3BE88"/>
<path d="M18.3003 32.1619C18.7003 32.4619 19.0003 32.7619 19.4003 32.9619V31.4619C19.1003 31.2619 18.7003 31.1619 18.4003 30.9619L18.3003 32.1619Z" fill="#F3EAB1"/>
<path d="M18.5005 30.9619C18.8005 31.1619 19.1005 31.3619 19.5005 31.4619L19.7005 22.4619L18.5005 30.9619Z" fill="#C5AE80"/>
<path d="M18.5005 30.9619C18.8005 31.1619 19.1005 31.3619 19.5005 31.4619L19.7005 22.4619L18.5005 30.9619Z" fill="#AC9777"/>
<path d="M19.4004 32.9614C19.8004 33.2614 20.3004 33.4614 20.8004 33.7614L20.6004 31.9614C20.2004 31.8614 19.8004 31.6614 19.5004 31.4614L19.4004 32.9614Z" fill="#FCF4D2"/>
<path d="M19.4004 31.5616C19.8004 31.7616 20.2004 31.8616 20.5004 32.0616L19.5004 22.1616L19.4004 31.5616Z" fill="#C5AE80"/>
<path opacity="0.51" d="M19.4004 31.5616C19.8004 31.7616 20.2004 31.8616 20.5004 32.0616L19.5004 22.1616L19.4004 31.5616Z" fill="#E3BE88"/>
<path d="M20.8001 33.762C21.3001 34.062 21.8001 34.262 22.4001 34.462L21.9001 32.362C21.5001 32.262 21.0001 32.162 20.6001 32.062L20.8001 33.762Z" fill="#F3EAB1"/>
<path d="M20.6002 31.9618C21.0002 32.0618 21.4002 32.2618 21.9002 32.2618L19.7002 21.8618L20.6002 31.9618Z" fill="#C5AE80"/>
<path d="M20.6002 31.9618C21.0002 32.0618 21.4002 32.2618 21.9002 32.2618L19.7002 21.8618L20.6002 31.9618Z" fill="#AC9777"/>
<path d="M23.1006 32.4614L23.9006 34.8614C24.5006 34.9614 25.0006 35.0614 25.6006 35.1614L24.3006 32.5614C24.2006 32.5614 24.1006 32.5614 23.9006 32.5614C23.7006 32.5614 23.4006 32.4614 23.1006 32.4614Z" fill="#ECD8A9"/>
<path d="M23.1004 32.4616C23.4004 32.4616 23.7004 32.4616 24.0004 32.4616C24.1004 32.4616 24.2004 32.4616 24.4004 32.4616L19.9004 23.1616L23.1004 32.4616Z" fill="#C5AE80"/>
<path d="M23.1004 32.4616C23.4004 32.4616 23.7004 32.4616 24.0004 32.4616C24.1004 32.4616 24.2004 32.4616 24.4004 32.4616L19.9004 23.1616L23.1004 32.4616Z" fill="#DCD2A2"/>
<path d="M25.4998 35.0618C25.8998 35.0618 26.2998 35.1618 26.7998 35.1618C26.9998 35.1618 27.1998 35.1618 27.2998 35.1618L25.5998 32.3618C25.1998 32.4618 24.6998 32.4618 24.2998 32.4618L25.4998 35.0618Z" fill="#F9DB88"/>
<path d="M24.3 32.5619C24.7 32.5619 25.2 32.5619 25.6 32.4619L20 23.4619L24.3 32.5619Z" fill="#9C895B"/>
<path opacity="0.51" d="M24.3 32.5619C24.7 32.5619 25.2 32.5619 25.6 32.4619L20 23.4619L24.3 32.5619Z" fill="#E3BE88"/>
<path d="M27.3005 35.1621C28.0005 35.1621 28.7005 35.0621 29.3005 34.9621L27.0005 32.1621C26.5005 32.2621 26.0005 32.4621 25.5005 32.4621L27.3005 35.1621Z" fill="#ECD8A9"/>
<path d="M25.6004 32.3619C26.1004 32.2619 26.6004 32.1619 27.1004 32.0619L19.4004 22.4619L25.6004 32.3619Z" fill="#C5AE80"/>
<path d="M25.6004 32.3619C26.1004 32.2619 26.6004 32.1619 27.1004 32.0619L19.4004 22.4619L25.6004 32.3619Z" fill="#F6CF4F"/>
<path d="M29.4001 34.9615C30.1001 34.8615 30.8001 34.6615 31.5001 34.3615L28.6001 31.5615C28.1001 31.7615 27.6001 31.9615 27.1001 32.1615L29.4001 34.9615Z" fill="#DCD2A2"/>
<path d="M27.1001 32.0615C27.6001 31.8615 28.1001 31.7615 28.6001 31.4615L19.1001 22.0615L27.1001 32.0615Z" fill="#C5AE80"/>
<path d="M27.1001 32.0615C27.6001 31.8615 28.1001 31.7615 28.6001 31.4615L19.1001 22.0615L27.1001 32.0615Z" fill="#C5AE80"/>
<path d="M28.6001 31.4613L31.4001 34.2613C32.2001 33.9613 33.1001 33.5613 33.8001 33.0613L30.3001 30.3613C29.8001 30.8613 29.2001 31.1613 28.6001 31.4613Z" fill="#F9DB88"/>
<path d="M19.2002 22.0615L28.7002 31.5615C29.3002 31.2615 29.9002 30.9615 30.4002 30.5615L19.2002 22.0615Z" fill="#ECD8A9"/>
<path opacity="0.51" d="M19.2002 22.0615L28.7002 31.5615C29.3002 31.2615 29.9002 30.9615 30.4002 30.5615L19.2002 22.0615Z" fill="#E3BE88"/>
<path d="M36.1002 31.4616L31.9002 29.1616C31.4002 29.6616 30.8002 30.1616 30.2002 30.5616L33.7002 33.2616C34.6002 32.7616 35.3002 32.1616 36.1002 31.4616Z" fill="#FCF4D2"/>
<path d="M31.9001 29.1615L19.1001 22.0615L30.2001 30.6615C30.8001 30.1615 31.4001 29.6615 31.9001 29.1615Z" fill="#F3EAB1"/>
<path d="M31.9001 29.1615L19.1001 22.0615L30.2001 30.6615C30.8001 30.1615 31.4001 29.6615 31.9001 29.1615Z" fill="#DDAD47"/>
<path d="M33.2004 27.4614C32.8004 28.0614 32.4004 28.6614 31.9004 29.1614L36.0004 31.4614C36.7004 30.7614 37.3004 30.0614 37.8004 29.2614L33.2004 27.4614Z" fill="#F9DB88"/>
<path d="M18.4004 21.5615L31.9004 29.1615C32.4004 28.6615 32.8004 28.0615 33.2004 27.4615L18.4004 21.5615Z" fill="#C5AE80"/>
<path d="M18.4004 21.5615L31.9004 29.1615C32.4004 28.6615 32.8004 28.0615 33.2004 27.4615L18.4004 21.5615Z" fill="#DCD2A2"/>
<path d="M39.3002 26.7614L39.0002 26.6614L34.2002 25.4614C33.9002 26.1614 33.6002 26.8614 33.2002 27.4614L37.9002 29.3614C38.4002 28.5614 38.9002 27.6614 39.3002 26.7614Z" fill="#DCD2A2"/>
<path d="M18.4004 21.5615L33.2004 27.4615C33.6004 26.8615 33.9004 26.1615 34.2004 25.4615L18.4004 21.5615Z" fill="#C5AE80"/>
<path d="M18.4004 21.5615L33.2004 27.4615C33.6004 26.8615 33.9004 26.1615 34.2004 25.4615L18.4004 21.5615Z" fill="#B29F79"/>
<path d="M40.1001 23.4614H39.9001L34.8001 22.9614C34.7001 23.8614 34.5001 24.7614 34.1001 25.5614L39.1001 26.8614C39.7001 25.8614 40.0001 24.7614 40.1001 23.4614Z" fill="#FCEBC0"/>
<path d="M18.8003 21.5615L34.1003 25.6615C34.4003 24.8615 34.7003 23.9615 34.8003 23.0615L18.8003 21.5615Z" fill="#ECD8A9"/>
<path d="M18.8003 21.5615L34.1003 25.6615C34.4003 24.8615 34.7003 23.9615 34.8003 23.0615L18.8003 21.5615Z" fill="#F6CF4F"/>
<path d="M40.3003 21.6619C40.3003 20.9619 40.2003 20.1619 40.1003 19.4619H39.9003L34.8003 19.9619C34.9003 20.4619 34.9003 21.0619 34.9003 21.5619C34.9003 22.0619 34.9003 22.5619 34.8003 22.9619L40.1003 23.4619C40.2003 22.9619 40.3003 22.3619 40.3003 21.6619Z" fill="#F9DB88"/>
<path d="M34.8003 19.9619L18.8003 21.4619L34.9003 23.0619C35.0003 22.5619 35.0003 22.1619 35.0003 21.6619C34.9003 21.0619 34.9003 20.5619 34.8003 19.9619Z" fill="#F3EAB1"/>
<path d="M34.8003 19.9619L18.8003 21.4619L34.9003 23.0619C35.0003 22.5619 35.0003 22.1619 35.0003 21.6619C34.9003 21.0619 34.9003 20.5619 34.8003 19.9619Z" fill="#B29F79"/>
<path d="M40.1001 19.7617C39.9001 18.5617 39.6001 17.3617 39.1001 16.2617L34.1001 17.5617C34.4001 18.3617 34.7001 19.2617 34.8001 20.2617L39.9001 19.8617L40.1001 19.7617Z" fill="#FCEBC0"/>
<path d="M18.8003 21.4615L34.8003 20.2615C34.7003 19.3615 34.4003 18.4615 34.1003 17.5615L18.8003 21.4615Z" fill="#ECD8A9"/>
<path d="M18.8003 21.4615L34.8003 20.2615C34.7003 19.3615 34.4003 18.4615 34.1003 17.5615L18.8003 21.4615Z" fill="#F6CF4F"/>
<path d="M39.1005 16.3617C38.7005 15.4617 38.2005 14.5617 37.6005 13.7617L33.0005 15.5617C33.4005 16.1617 33.8005 16.8617 34.0005 17.5617L39.1005 16.3617Z" fill="#DCD2A2"/>
<path d="M34.1003 17.5615C33.8003 16.8615 33.5003 16.2615 33.1003 15.5615L18.8003 21.3615L34.1003 17.5615Z" fill="#C5AE80"/>
<path d="M34.1003 17.5615C33.8003 16.8615 33.5003 16.2615 33.1003 15.5615L18.8003 21.3615L34.1003 17.5615Z" fill="#B29F79"/>
<path d="M37.7004 13.7617C37.2004 13.0617 36.6004 12.3617 35.9004 11.7617L31.9004 14.0617C32.4004 14.5617 32.8004 15.0617 33.2004 15.6617L37.7004 13.7617Z" fill="#F9DB88"/>
<path d="M33.1002 15.5619C32.7002 14.9619 32.3002 14.4619 31.8002 13.9619L19.2002 21.0619L33.1002 15.5619Z" fill="#C5AE80"/>
<path d="M33.1002 15.5619C32.7002 14.9619 32.3002 14.4619 31.8002 13.9619L19.2002 21.0619L33.1002 15.5619Z" fill="#DCD2A2"/>
<path d="M31.8002 14.0615L35.9002 11.7615C35.2002 11.1615 34.5002 10.5615 33.6002 10.0615L30.2002 12.6615C30.8002 13.0615 31.4002 13.5615 31.8002 14.0615Z" fill="#FCEBC0"/>
<path d="M31.8004 14.0617C31.3004 13.5617 30.8004 13.1617 30.2004 12.7617L19.9004 20.7617L31.8004 14.0617Z" fill="#F3EAB1"/>
<path d="M31.8004 14.0617C31.3004 13.5617 30.8004 13.1617 30.2004 12.7617L19.9004 20.7617L31.8004 14.0617Z" fill="#DDAD47"/>
<path d="M33.7998 10.1615C33.0998 9.76153 32.2998 9.36152 31.4998 9.06152L28.7998 11.7615C29.3998 12.0615 29.8998 12.3615 30.3998 12.7615L33.7998 10.1615Z" fill="#F9DB88"/>
<path d="M30.4 12.7617C29.9 12.3617 29.4 12.0617 28.8 11.7617L20 20.5617L30.4 12.7617Z" fill="#ECD8A9"/>
<path opacity="0.51" d="M30.4 12.7617C29.9 12.3617 29.4 12.0617 28.8 11.7617L20 20.5617L30.4 12.7617Z" fill="#E3BE88"/>
<path d="M31.5003 9.06191C30.9003 8.86191 30.2003 8.66191 29.5003 8.46191L27.3003 11.1619C27.8003 11.3619 28.3003 11.4619 28.7003 11.7619L31.5003 9.06191Z" fill="#DCD2A2"/>
<path d="M28.8004 11.8617C28.3004 11.6617 27.9004 11.4617 27.4004 11.2617L19.9004 20.6617L28.8004 11.8617Z" fill="#C5AE80"/>
<path opacity="0.51" d="M28.8004 11.8617C28.3004 11.6617 27.9004 11.4617 27.4004 11.2617L19.9004 20.6617L28.8004 11.8617Z" fill="#E3BE88"/>
<path d="M29.6 8.46162C29 8.36162 28.3 8.26162 27.7 8.16162L26 10.8616C26.5 10.9616 26.9 11.0616 27.4 11.1616L29.6 8.46162Z" fill="#ECD8A9"/>
<path d="M27.4002 11.2614C27.0002 11.1614 26.5002 10.9614 26.0002 10.9614L20.2002 20.2614L27.4002 11.2614Z" fill="#C5AE80"/>
<path d="M27.4002 11.2614C27.0002 11.1614 26.5002 10.9614 26.0002 10.9614L20.2002 20.2614L27.4002 11.2614Z" fill="#F6CF4F"/>
<path d="M27.7001 8.26172C27.4001 8.26172 27.1001 8.26172 26.8001 8.26172C26.5001 8.26172 26.2001 8.26172 25.8001 8.26172L24.6001 10.7617C25.1001 10.7617 25.5001 10.8617 26.0001 10.9617L27.7001 8.26172Z" fill="#F9DB88"/>
<path d="M26 10.8616C25.6 10.7616 25.1 10.7616 24.6 10.6616L20 20.3616L26 10.8616Z" fill="#9C895B"/>
<path opacity="0.51" d="M26 10.8616C25.6 10.7616 25.1 10.7616 24.6 10.6616L20 20.3616L26 10.8616Z" fill="#E3BE88"/>
<path d="M24.6998 10.7617L25.8998 8.26172C25.2998 8.26172 24.6998 8.36172 24.0998 8.46172L23.2998 10.7617C23.4998 10.7617 23.6998 10.7617 23.8998 10.7617C24.2998 10.7617 24.4998 10.7617 24.6998 10.7617Z" fill="#ECD8A9"/>
<path d="M24.7 10.7617C24.5 10.7617 24.2 10.7617 24 10.7617C23.8 10.7617 23.6 10.7617 23.4 10.7617L20 20.6617L24.7 10.7617Z" fill="#C5AE80"/>
<path opacity="0.51" d="M24.7 10.7617C24.5 10.7617 24.2 10.7617 24 10.7617C23.8 10.7617 23.6 10.7617 23.4 10.7617L20 20.6617L24.7 10.7617Z" fill="#E3BE88"/>
<path d="M24.3001 8.46191C23.7001 8.56191 23.1001 8.76191 22.5001 8.96191L22.1001 10.9619C22.6001 10.8619 23.0001 10.8619 23.5001 10.7619L24.3001 8.46191Z" fill="#FCF4D2"/>
<path d="M23.5002 10.7617C23.0002 10.7617 22.5002 10.8617 22.1002 10.9617L19.7002 21.7617L23.5002 10.7617Z" fill="#C5AE80"/>
<path d="M23.5002 10.7617C23.0002 10.7617 22.5002 10.8617 22.1002 10.9617L19.7002 21.7617L23.5002 10.7617Z" fill="#E3BE88"/>
<path d="M22.5002 8.86182C21.9002 9.06182 21.4002 9.26182 20.9002 9.56182L20.7002 11.2618C21.1002 11.1618 21.6002 11.0618 22.1002 10.9618L22.5002 8.86182Z" fill="#F3EAB1"/>
<path d="M22.1002 10.8618C21.6002 10.9618 21.2002 11.0618 20.7002 11.1618L19.7002 21.8618L22.1002 10.8618Z" fill="#C5AE80"/>
<path opacity="0.51" d="M22.1002 10.8618C21.6002 10.9618 21.2002 11.0618 20.7002 11.1618L19.7002 21.8618L22.1002 10.8618Z" fill="#E3BE88"/>
<path d="M20.9 9.56152C20.4 9.76152 19.9 10.0615 19.5 10.3615V11.6615C19.9 11.4615 20.3 11.3615 20.7 11.1615L20.9 9.56152Z" fill="#E9C6A6"/>
<path d="M20.7 11.2617C20.3 11.3617 19.9 11.5617 19.5 11.7617L19.7 21.7617L20.7 11.2617Z" fill="#C5AE80"/>
<path opacity="0.51" d="M20.7 11.2617C20.3 11.3617 19.9 11.5617 19.5 11.7617L19.7 21.7617L20.7 11.2617Z" fill="#E3BE88"/>
<path d="M19.5003 10.3618C19.1003 10.6618 18.7003 10.8618 18.3003 11.1618L18.4003 12.1618C18.7003 11.9618 19.1003 11.7618 19.5003 11.5618V10.3618Z" fill="#ECD8A9"/>
<path d="M19.5004 11.6616C19.1004 11.8616 18.8004 11.9616 18.4004 12.2616L19.7004 21.3616L19.5004 11.6616Z" fill="#C5AE80"/>
<path d="M19.5004 11.6616C19.1004 11.8616 18.8004 11.9616 18.4004 12.2616L19.7004 21.3616L19.5004 11.6616Z" fill="#C5AE80"/>
<path d="M18.3002 11.1616C17.9002 11.4616 17.6002 11.7616 17.2002 12.1616L17.4002 12.9616C17.7002 12.7616 18.1002 12.4616 18.4002 12.2616L18.3002 11.1616Z" fill="#F3EAB1"/>
<path d="M18.5 12.2617C18.1 12.4617 17.8 12.6617 17.5 12.9617L20 22.1617L18.5 12.2617Z" fill="#C5AE80"/>
<path opacity="0.51" d="M18.5 12.2617C18.1 12.4617 17.8 12.6617 17.5 12.9617L20 22.1617L18.5 12.2617Z" fill="#E3BE88"/>
<path d="M17.3004 12.1616C17.0004 12.4616 16.7004 12.7616 16.4004 13.1616L16.6004 13.6616C16.9004 13.3616 17.2004 13.1616 17.5004 12.8616L17.3004 12.1616Z" fill="#C5AE80"/>
<path d="M17.5006 12.8618C17.2006 13.0618 16.9006 13.3618 16.6006 13.6618L20.1006 22.1618L17.5006 12.8618Z" fill="#C5AE80"/>
<path d="M17.5006 12.8618C17.2006 13.0618 16.9006 13.3618 16.6006 13.6618L20.1006 22.1618L17.5006 12.8618Z" fill="#C5AE80"/>
<path d="M16.6001 13.6616L16.4001 13.1616C16.1001 13.5616 15.8001 13.8616 15.6001 14.2616L15.8001 14.5616C16.0001 14.2616 16.3001 13.9616 16.6001 13.6616Z" fill="#FCF4D2"/>
<path d="M16.6002 13.6616C16.3002 13.9616 16.0002 14.2616 15.7002 14.5616L20.8002 23.1616L16.6002 13.6616Z" fill="#F3EAB1"/>
<path d="M16.6002 13.6616C16.3002 13.9616 16.0002 14.2616 15.7002 14.5616L20.8002 23.1616L16.6002 13.6616Z" fill="#ECD8A9"/>
<path d="M15.5003 14.2617C15.2003 14.6617 15.0003 15.0617 14.8003 15.4617L14.9003 15.5617C15.1003 15.1617 15.4003 14.8617 15.7003 14.5617L15.5003 14.2617Z" fill="#C5AE80"/>
<path d="M15.7004 14.5615C15.4004 14.8615 15.2004 15.2615 14.9004 15.5615L18.4004 18.9615L15.7004 14.5615Z" fill="#9C895B"/>
<path opacity="0.51" d="M15.7004 14.5615C15.4004 14.8615 15.2004 15.2615 14.9004 15.5615L18.4004 18.9615L15.7004 14.5615Z" fill="#9C895B"/>
<path d="M26.8003 35.2617C34.2561 35.2617 40.3003 29.2176 40.3003 21.7617C40.3003 14.3059 34.2561 8.26172 26.8003 8.26172C19.3444 8.26172 13.3003 14.3059 13.3003 21.7617C13.3003 29.2176 19.3444 35.2617 26.8003 35.2617Z" fill="#F6CF4F"/>
<path d="M20.7002 29.4619C25.1185 29.4619 28.7002 25.8802 28.7002 21.4619C28.7002 17.0436 25.1185 13.4619 20.7002 13.4619C16.2819 13.4619 12.7002 17.0436 12.7002 21.4619C12.7002 25.8802 16.2819 29.4619 20.7002 29.4619Z" fill="white"/>
<path d="M23.9004 10.7617C19.7004 10.7617 16.1004 13.1617 14.3004 16.5617C15.8004 14.6617 18.1004 13.3617 20.7004 13.3617C25.1004 13.3617 28.7004 16.9617 28.7004 21.3617C28.7004 25.7617 25.1004 29.3617 20.7004 29.3617C17.8004 29.3617 15.3004 27.8617 13.9004 25.5617C15.5004 29.5617 19.4004 32.4617 24.0004 32.4617C30.0004 32.4617 34.9004 27.5617 34.9004 21.5617C34.9004 15.5617 30.0004 10.7617 23.9004 10.7617Z" fill="#C4994B"/>
<path d="M55.6567 18.9914C55.6567 20.3762 56.0967 21.515 56.9638 22.4209C57.8309 23.3268 58.9827 23.7798 60.4062 23.7798C61.8427 23.7798 63.0463 23.288 64.0169 22.2915L63.1369 21.088C62.3475 21.8644 61.4545 22.2527 60.471 22.2527C59.5133 22.2527 58.7627 21.9292 58.2062 21.295C57.6497 20.6479 57.3779 19.8715 57.3779 18.9656C57.3779 18.0726 57.6497 17.322 58.1933 16.7138C58.7368 16.1055 59.4874 15.8079 60.458 15.8079C61.3251 15.8079 62.2957 16.209 62.9686 16.7785L63.771 15.5361C62.9039 14.6949 61.778 14.2808 60.3804 14.2808C59.0086 14.2808 57.8827 14.7337 56.9897 15.6267C56.0967 16.5196 55.6567 17.6455 55.6567 18.9914Z" fill="black"/>
<path d="M71.6241 23.6245C72.53 23.6245 73.2806 23.4045 73.8889 22.9515C74.4971 22.4986 74.7948 21.8256 74.7948 20.9585C74.7948 19.975 74.2771 19.0691 73.3065 18.7973V18.7714C73.9924 18.3961 74.4195 17.6714 74.4195 16.8043C74.4195 15.3161 73.2806 14.4361 71.5724 14.4361H68.2982V23.6245H71.6241ZM69.9676 15.8726H71.5594C72.2971 15.8726 72.7242 16.3385 72.7242 17.0114C72.7242 17.6973 72.2971 18.1891 71.5853 18.1891H69.9676V15.8726ZM69.9676 19.535H71.7536C72.5818 19.535 73.0865 20.0785 73.0865 20.855C73.0865 21.6444 72.5818 22.188 71.7536 22.188H69.9676V19.535Z" fill="black"/>
<path d="M85.042 23.6245V22.188H81.0043V19.7162H84.0973V18.2797H81.0043V15.8726H84.8349V14.4361H79.3348V23.6245H85.042Z" fill="black"/>
<path d="M93.29 23.6245V15.8726H96.3054V14.4361H88.6182V15.8726H91.6335V23.6245H93.29Z" fill="black"/>
<path d="M98.9091 23.728C101.433 23.6374 102.481 21.4891 102.481 16.9726V15.8726H104.901V23.6245H106.57V14.4361H100.889V16.9467C100.889 20.4668 100.294 22.0068 98.9091 22.2009V23.728Z" fill="black"/>
<path d="M120.746 23.6245V14.4361H119.09V23.6245H120.746ZM115.065 23.6245C115.906 23.6245 116.579 23.3527 117.11 22.8092C117.64 22.2527 117.899 21.5409 117.899 20.6609C117.899 19.755 117.627 19.0303 117.097 18.4867C116.566 17.9302 115.88 17.6585 115.026 17.6585H113.318V14.4361H111.648V23.6245H115.065ZM113.318 19.095H114.741C115.66 19.095 116.204 19.7162 116.204 20.6609C116.204 21.6056 115.686 22.188 114.767 22.188H113.318V19.095Z" fill="black"/>
<path d="M131.539 23.6245V22.188H127.501V19.7162H130.594V18.2797H127.501V15.8726H131.332V14.4361H125.832V23.6245H131.539Z" fill="black"/>
<path d="M143.786 23.6245L147.28 18.3314C147.5 17.9691 147.759 17.4902 148.044 16.9079H148.07L147.979 18.3314V23.6245H149.636V14.4361H147.979L144.511 19.7291C144.291 20.0915 144.032 20.5703 143.734 21.1656H143.708L143.799 19.742V14.4361H142.13V23.6245H143.786Z" fill="black"/>
<path d="M156.351 22.188C157.141 20.9068 157.542 19.0303 157.542 16.5585V15.8726H160.001V22.188H156.351ZM153.698 25.4363H155.238V23.6245H161.204V25.4363H162.693V22.188H161.67V14.4361H155.963V16.442C155.963 18.9267 155.523 20.8421 154.63 22.188H153.698V25.4363Z" fill="black"/>
<path d="M172.855 23.6245V22.188H168.817V19.7162H171.91V18.2797H168.817V15.8726H172.648V14.4361H167.147V23.6245H172.855Z" fill="black"/>
<path d="M179.019 23.6245L182.513 18.3314C182.733 17.9691 182.992 17.4902 183.277 16.9079H183.303L183.212 18.3314V23.6245H184.869V14.4361H183.212L179.744 19.7291C179.524 20.0915 179.265 20.5703 178.967 21.1656H178.941L179.032 19.742V14.4361H177.363V23.6245H179.019Z" fill="black"/>
<path d="M56.4368 34.173L58.9702 30.3437C59.1069 30.1263 59.2597 29.8421 59.4447 29.4826H59.4607L59.4125 30.3437V34.173H60.2006V28.2703H59.4205L56.9033 32.0911C56.7666 32.3001 56.6057 32.5928 56.4208 32.9606H56.4047L56.4529 32.0995V28.2703H55.6567V34.173H56.4368Z" fill="#999999"/>
<path d="M63.3689 31.1882C63.3689 32.066 63.6343 32.8018 64.1732 33.3954C64.712 33.9807 65.4197 34.2733 66.2802 34.2733C67.1408 34.2733 67.8726 33.9639 68.4758 33.3369L68.0495 32.7433C67.5911 33.2198 66.9397 33.5125 66.3044 33.5125C65.669 33.5125 65.1543 33.2867 64.7683 32.8352C64.3823 32.3838 64.1892 31.8319 64.1892 31.1798C64.1892 30.536 64.3742 29.9926 64.7522 29.5662C65.1302 29.1398 65.6449 28.9224 66.2883 28.9224C66.8673 28.9224 67.5107 29.1732 67.9289 29.5662L68.331 28.9475C67.8083 28.4291 67.1166 28.1699 66.2561 28.1699C65.4197 28.1699 64.7281 28.4542 64.1812 29.0311C63.6424 29.608 63.3689 30.327 63.3689 31.1882Z" fill="#999999"/>
<path d="M72.2862 34.173V31.4724H73.1306L74.6426 34.173H75.5514L73.7901 31.0878V31.0711L75.4468 28.2703H74.5702L73.1306 30.7534H72.2862V28.2703H71.49V34.173H72.2862Z" fill="#999999"/>
<path d="M78.2959 33.8887C78.6497 34.1479 78.9956 34.2733 79.3333 34.2733C79.8963 34.2733 80.3306 33.8803 80.6281 33.0861L82.4377 28.2703H81.6013L80.5477 31.2467C80.4673 31.4891 80.3869 31.74 80.3065 32.0159H80.2904L79.9687 31.2383L78.5854 28.2703H77.7088L79.9526 32.8938C79.7837 33.3369 79.6229 33.5543 79.3092 33.5543C79.1242 33.5543 78.9071 33.4539 78.6578 33.2616L78.2959 33.8887Z" fill="#999999"/>
<path d="M84.7784 31.1882C84.7784 32.066 85.0438 32.8018 85.5826 33.3954C86.1215 33.9807 86.8292 34.2733 87.6897 34.2733C88.5503 34.2733 89.2821 33.9639 89.8853 33.3369L89.459 32.7433C89.0006 33.2198 88.3492 33.5125 87.7139 33.5125C87.0785 33.5125 86.5638 33.2867 86.1778 32.8352C85.7917 32.3838 85.5987 31.8319 85.5987 31.1798C85.5987 30.536 85.7837 29.9926 86.1617 29.5662C86.5397 29.1398 87.0544 28.9224 87.6978 28.9224C88.2768 28.9224 88.9202 29.1732 89.3384 29.5662L89.7405 28.9475C89.2178 28.4291 88.5261 28.1699 87.6656 28.1699C86.8292 28.1699 86.1376 28.4542 85.5907 29.0311C85.0519 29.608 84.7784 30.327 84.7784 31.1882Z" fill="#999999"/>
<path d="M92.4045 31.1882C92.4045 32.066 92.6699 32.8018 93.2087 33.3954C93.7475 33.9807 94.4552 34.2733 95.3158 34.2733C96.1763 34.2733 96.9081 33.9639 97.5113 33.3369L97.0851 32.7433C96.6267 33.2198 95.9752 33.5125 95.3399 33.5125C94.7046 33.5125 94.1899 33.2867 93.8038 32.8352C93.4178 32.3838 93.2248 31.8319 93.2248 31.1798C93.2248 30.536 93.4097 29.9926 93.7877 29.5662C94.1657 29.1398 94.6804 28.9224 95.3238 28.9224C95.9029 28.9224 96.5462 29.1732 96.9644 29.5662L97.3666 28.9475C96.8438 28.4291 96.1522 28.1699 95.2916 28.1699C94.4552 28.1699 93.7636 28.4542 93.2167 29.0311C92.6779 29.608 92.4045 30.327 92.4045 31.1882Z" fill="#999999"/>
<path d="M102.641 34.173V28.9893H104.595V28.2703H99.8983V28.9893H101.853V34.173H102.641Z" fill="#999999"/>
<path d="M109.519 34.173C110.041 34.173 110.484 34.0308 110.83 33.7382C111.175 33.4456 111.352 33.0275 111.352 32.4924C111.352 31.8152 110.999 31.2383 110.411 31.0627V31.046C110.854 30.8119 111.119 30.3437 111.119 29.7752C111.119 28.8388 110.46 28.2703 109.47 28.2703H107.484V34.173H109.519ZM108.28 28.9893H109.462C109.985 28.9893 110.307 29.3321 110.307 29.8588C110.307 30.3855 109.977 30.7534 109.47 30.7534H108.28V28.9893ZM108.28 31.439H109.559C110.146 31.439 110.532 31.8403 110.532 32.4423C110.532 33.0526 110.162 33.4539 109.559 33.4539H108.28V31.439Z" fill="#999999"/>
<path d="M114.159 31.1798C114.159 32.0493 114.441 32.7851 115.004 33.3787C115.567 33.9723 116.258 34.2733 117.079 34.2733C117.899 34.2733 118.591 33.9723 119.146 33.3787C119.709 32.7851 119.99 32.0493 119.99 31.1798C119.99 30.3354 119.709 29.6163 119.146 29.0394C118.591 28.4625 117.899 28.1699 117.079 28.1699C116.258 28.1699 115.567 28.4625 115.004 29.0394C114.441 29.6163 114.159 30.3354 114.159 31.1798ZM114.98 31.1798C114.98 30.5444 115.181 30.0093 115.591 29.5745C116.001 29.1398 116.492 28.9224 117.079 28.9224C117.666 28.9224 118.156 29.1398 118.558 29.5745C118.969 30.0093 119.17 30.5444 119.17 31.1798C119.17 31.8403 118.969 32.3921 118.558 32.8436C118.156 33.2867 117.666 33.5125 117.079 33.5125C116.492 33.5125 116.001 33.2867 115.591 32.8436C115.181 32.3921 114.98 31.8403 114.98 31.1798Z" fill="#999999"/>
<path d="M126.812 31.1798C126.812 32.0493 127.093 32.7851 127.656 33.3787C128.219 33.9723 128.911 34.2733 129.731 34.2733C130.551 34.2733 131.243 33.9723 131.798 33.3787C132.361 32.7851 132.642 32.0493 132.642 31.1798C132.642 30.3354 132.361 29.6163 131.798 29.0394C131.243 28.4625 130.551 28.1699 129.731 28.1699C128.911 28.1699 128.219 28.4625 127.656 29.0394C127.093 29.6163 126.812 30.3354 126.812 31.1798ZM127.632 31.1798C127.632 30.5444 127.833 30.0093 128.243 29.5745C128.653 29.1398 129.144 28.9224 129.731 28.9224C130.318 28.9224 130.809 29.1398 131.211 29.5745C131.621 30.0093 131.822 30.5444 131.822 31.1798C131.822 31.8403 131.621 32.3921 131.211 32.8436C130.809 33.2867 130.318 33.5125 129.731 33.5125C129.144 33.5125 128.653 33.2867 128.243 32.8436C127.833 32.3921 127.632 31.8403 127.632 31.1798Z" fill="#999999"/>
<path d="M135.451 31.1882C135.451 32.066 135.717 32.8018 136.255 33.3954C136.794 33.9807 137.502 34.2733 138.363 34.2733C139.223 34.2733 139.955 33.9639 140.558 33.3369L140.132 32.7433C139.673 33.2198 139.022 33.5125 138.387 33.5125C137.751 33.5125 137.237 33.2867 136.851 32.8352C136.465 32.3838 136.272 31.8319 136.272 31.1798C136.272 30.536 136.456 29.9926 136.834 29.5662C137.212 29.1398 137.727 28.9224 138.371 28.9224C138.95 28.9224 139.593 29.1732 140.011 29.5662L140.413 28.9475C139.891 28.4291 139.199 28.1699 138.338 28.1699C137.502 28.1699 136.81 28.4542 136.263 29.0311C135.725 29.608 135.451 30.327 135.451 31.1882Z" fill="#999999"/>
<path d="M145.607 34.173C146.13 34.173 146.572 34.0308 146.918 33.7382C147.264 33.4456 147.441 33.0275 147.441 32.4924C147.441 31.8152 147.087 31.2383 146.5 31.0627V31.046C146.942 30.8119 147.207 30.3437 147.207 29.7752C147.207 28.8388 146.548 28.2703 145.559 28.2703H143.572V34.173H145.607ZM144.368 28.9893H145.551C146.073 28.9893 146.395 29.3321 146.395 29.8588C146.395 30.3855 146.065 30.7534 145.559 30.7534H144.368V28.9893ZM144.368 31.439H145.647C146.234 31.439 146.62 31.8403 146.62 32.4423C146.62 33.0526 146.25 33.4539 145.647 33.4539H144.368V31.439Z" fill="#999999"/>
<path d="M154.044 34.173V33.4539H151.398V31.556H153.432V30.837H151.398V28.9893H153.907V28.2703H150.601V34.173H154.044Z" fill="#999999"/>
<path d="M163.706 34.173V35.3435H164.43V33.4539H163.73V28.2703H162.942V33.4539H160.843V28.2703H160.047V33.4539H157.948V28.2703H157.152V34.173H163.706Z" fill="#999999"/>
<path d="M167.68 34.173L168.251 32.4757H170.39L170.961 34.173H171.782L169.747 28.2703H168.902L166.868 34.173H167.68ZM169.095 29.9257C169.16 29.7167 169.232 29.4408 169.313 29.0812H169.329L169.554 29.9257L170.181 31.7901H168.46L169.095 29.9257Z" fill="#999999"/>
<path d="M176.294 34.173V28.9893H178.248V28.2703H173.551V28.9893H175.506V34.173H176.294Z" fill="#999999"/>
<path d="M183.172 34.173C183.67 34.173 184.081 34.0057 184.394 33.6713C184.708 33.3369 184.869 32.8938 184.869 32.3503C184.869 31.7734 184.708 31.3219 184.386 30.9959C184.064 30.6614 183.646 30.4942 183.14 30.4942H181.933V28.2703H181.137V34.173H183.172ZM181.933 31.2132H183.027C183.662 31.2132 184.056 31.6564 184.056 32.3503C184.056 33.0443 183.678 33.4539 183.035 33.4539H181.933V31.2132Z" fill="#999999"/>
</svg>
